G04*
G04 #@! TF.GenerationSoftware,Altium Limited,Altium Designer,23.10.1 (27)*
G04*
G04 Layer_Color=65535*
%FSLAX44Y44*%
%MOMM*%
G71*
G04*
G04 #@! TF.SameCoordinates,E985FA8A-299A-4084-AA3F-4317102C53E2*
G04*
G04*
G04 #@! TF.FilePolarity,Positive*
G04*
G01*
G75*
%ADD10C,0.2500*%
%ADD11C,0.2000*%
%ADD12C,0.1270*%
%ADD13C,0.5000*%
%ADD14C,0.6000*%
%ADD15C,0.2540*%
%ADD16C,0.4000*%
D10*
X515650Y636000D02*
G03*
X515650Y636000I-1250J0D01*
G01*
X870250Y919650D02*
G03*
X870250Y919650I-1250J0D01*
G01*
X642250Y860900D02*
G03*
X642250Y860900I-1250J0D01*
G01*
X1032750Y914100D02*
G03*
X1032750Y914100I-1250J0D01*
G01*
X616229Y581750D02*
G03*
X616229Y581750I-1250J0D01*
G01*
X789900Y433150D02*
G03*
X789900Y433150I-1250J0D01*
G01*
X853000Y464500D02*
G03*
X853000Y464500I-1250J0D01*
G01*
D11*
X736500Y626000D02*
G03*
X736500Y626000I-1000J0D01*
G01*
X717000Y439000D02*
G03*
X717000Y439000I-1000J0D01*
G01*
X975600Y571200D02*
G03*
X975600Y571200I-1000J0D01*
G01*
X529600Y604800D02*
Y631200D01*
X473800D02*
X529600D01*
X473800Y604800D02*
Y631200D01*
Y604800D02*
X529600D01*
X797000Y885050D02*
X819750D01*
X840250D02*
X863000D01*
X797000Y929900D02*
Y954950D01*
Y885050D02*
Y909400D01*
X863000Y885050D02*
Y909400D01*
Y929900D02*
Y954950D01*
X797000D02*
X863000D01*
X614500Y888500D02*
X615500D01*
X614500Y899500D02*
X615500D01*
X614500Y870500D02*
X615500D01*
X614500Y881500D02*
X615500D01*
X731250Y870800D02*
Y904200D01*
X643750D02*
X731250D01*
X643750Y870800D02*
X731250D01*
X643750D02*
Y904200D01*
X614500Y834500D02*
X615500D01*
X614500Y845500D02*
X615500D01*
X756500Y867500D02*
Y868500D01*
X767500Y867500D02*
Y868500D01*
X774500Y867500D02*
Y868500D01*
X785500Y867500D02*
Y868500D01*
X399500Y784500D02*
X400500D01*
X399500Y795500D02*
X400500D01*
X614500Y852500D02*
X615500D01*
X614500Y863500D02*
X615500D01*
X523500Y866500D02*
Y867500D01*
X534500Y866500D02*
Y867500D01*
X541500Y886000D02*
Y887000D01*
X552500Y886000D02*
Y887000D01*
X882500Y859500D02*
Y860500D01*
X871500Y859500D02*
Y860500D01*
X808500Y867000D02*
Y868000D01*
X797500Y867000D02*
Y868000D01*
X900500Y859500D02*
Y860500D01*
X889500Y859500D02*
Y860500D01*
X941250Y870800D02*
Y904200D01*
Y870800D02*
X1028750D01*
X941250Y904200D02*
X1028750D01*
Y870800D02*
Y904200D01*
X1051000Y849500D02*
X1052000D01*
X1051000Y838500D02*
X1052000D01*
X1051000Y886500D02*
X1052000D01*
X1051000Y875500D02*
X1052000D01*
X1050500Y867500D02*
X1051500D01*
X1050500Y856500D02*
X1051500D01*
X1067500Y893500D02*
X1068500D01*
X1067500Y904500D02*
X1068500D01*
X1146500Y853000D02*
Y854000D01*
X1135500Y853000D02*
Y854000D01*
X1274500Y789500D02*
Y790500D01*
X1285500Y789500D02*
Y790500D01*
X1200500Y854500D02*
Y855500D01*
X1211500Y854500D02*
Y855500D01*
X1218500Y854500D02*
Y855500D01*
X1229500Y854500D02*
Y855500D01*
X961900Y488500D02*
Y564700D01*
X1012700Y488500D02*
Y564700D01*
X961900Y488500D02*
X1012700D01*
X961900Y564700D02*
X1012700D01*
X644515Y587500D02*
X685485D01*
Y504500D02*
Y587500D01*
X644515Y504500D02*
X685485D01*
X644515D02*
Y587500D01*
X621000Y457000D02*
Y494000D01*
X591000Y457000D02*
X591600D01*
X620400D02*
X621000D01*
X591000D02*
Y494000D01*
X591600D01*
X620400D02*
X621000D01*
X606000Y446000D02*
Y451000D01*
X603500Y448500D02*
X608500D01*
X744500Y446000D02*
X781500D01*
X744500Y475400D02*
Y476000D01*
Y446000D02*
Y446600D01*
Y476000D02*
X781500D01*
Y475400D02*
Y476000D01*
Y446000D02*
Y446600D01*
X733500Y461000D02*
X738500D01*
X736000Y458500D02*
Y463500D01*
X747250Y482000D02*
X784250D01*
X747250Y511400D02*
Y512000D01*
Y482000D02*
Y482600D01*
Y512000D02*
X784250D01*
Y511400D02*
Y512000D01*
Y482000D02*
Y482600D01*
X736250Y497000D02*
X741250D01*
X738750Y494500D02*
Y499500D01*
X739400Y406800D02*
X747250D01*
X739400Y430750D02*
Y437200D01*
Y406800D02*
Y413250D01*
Y437200D02*
X747250D01*
X754600Y421250D02*
Y422750D01*
X785750Y418000D02*
Y426000D01*
X772250Y418000D02*
Y426000D01*
X785750D01*
X772250Y418000D02*
X785750D01*
X805500Y419500D02*
X806500D01*
X805500Y408500D02*
X806500D01*
X741500Y587500D02*
X742500D01*
X741500Y576500D02*
X742500D01*
X749000Y530500D02*
Y567500D01*
X778400D02*
X779000D01*
X749000D02*
X749600D01*
X779000Y530500D02*
Y567500D01*
X778400Y530500D02*
X779000D01*
X749000D02*
X749600D01*
X764000Y573500D02*
Y578500D01*
X761500Y576000D02*
X766500D01*
X1016000Y579500D02*
X1017000D01*
X1016000Y590500D02*
X1017000D01*
X1048500Y577500D02*
Y578500D01*
X1037500Y577500D02*
Y578500D01*
X1031500Y514500D02*
X1032500D01*
X1031500Y503500D02*
X1032500D01*
X1043600Y535250D02*
Y536750D01*
X1028400Y551200D02*
X1036250D01*
X1028400Y520800D02*
Y527250D01*
Y544750D02*
Y551200D01*
Y520800D02*
X1036250D01*
X980000Y579500D02*
X981000D01*
X980000Y590500D02*
X981000D01*
X953500Y577500D02*
Y578500D01*
X942500Y577500D02*
Y578500D01*
X918500Y475500D02*
Y536500D01*
X857500Y475500D02*
Y536500D01*
X918500D01*
X857500Y475500D02*
X918500D01*
D12*
X944900Y447000D02*
G03*
X969900Y422000I25000J0D01*
G01*
Y472000D02*
G03*
X944900Y447000I0J-25000D01*
G01*
X1034900Y422000D02*
G03*
X1059900Y447000I0J25000D01*
G01*
D02*
G03*
X1034900Y472000I-25000J0D01*
G01*
X647350Y600600D02*
X728650D01*
X647350D02*
Y651400D01*
X728650D01*
Y600600D02*
Y651400D01*
X652500Y429500D02*
Y441900D01*
Y429500D02*
X687500D01*
X652500Y482100D02*
Y494500D01*
X687500D01*
X920000Y737500D02*
Y752500D01*
X750000Y737500D02*
Y752500D01*
X740000Y726500D02*
Y737500D01*
Y726500D02*
X930000D01*
Y737500D01*
X920000D02*
X930000D01*
X750000D02*
X920000D01*
X740000D02*
X750000D01*
X969900Y422000D02*
X1034900D01*
X969900Y472000D02*
X1034900D01*
X920000Y675000D02*
X930000D01*
X750000D02*
X920000D01*
X740000D02*
X750000D01*
X740000D02*
Y686000D01*
X930000D01*
Y675000D02*
Y686000D01*
X920000Y660000D02*
Y675000D01*
X750000Y660000D02*
Y675000D01*
D13*
X654515Y580000D02*
G03*
X654515Y580000I-2500J0D01*
G01*
D14*
X870500Y485500D02*
G03*
X870500Y485500I-3000J0D01*
G01*
D15*
X404280Y644400D02*
X465240D01*
X404280Y593600D02*
X465240D01*
X404280D02*
Y644400D01*
X465240Y593600D02*
Y644400D01*
X1200760Y590600D02*
Y641400D01*
X1261720Y590600D02*
Y641400D01*
X1200760D02*
X1261720D01*
X1200760Y590600D02*
X1261720D01*
X773906Y764495D02*
X778144D01*
X776025D01*
Y777211D01*
X773906Y775092D01*
X896094Y648005D02*
X891856D01*
X893975D01*
Y635289D01*
X896094Y637408D01*
X505007Y593078D02*
X501622D01*
X503315D01*
Y584614D01*
X501622Y582922D01*
X499929D01*
X498236Y584614D01*
X513471Y582922D02*
Y593078D01*
X508393Y588000D01*
X515164D01*
X1267536Y569922D02*
Y580078D01*
X1270922Y576693D01*
X1274307Y580078D01*
Y569922D01*
X1284464D02*
X1277693D01*
X1284464Y576693D01*
Y578386D01*
X1282771Y580078D01*
X1279386D01*
X1277693Y578386D01*
X408749Y570922D02*
Y581078D01*
X412134Y577693D01*
X415520Y581078D01*
Y570922D01*
X418906D02*
X422291D01*
X420598D01*
Y581078D01*
X418906Y579386D01*
X635000Y628386D02*
X633307Y630078D01*
X629922D01*
X628229Y628386D01*
Y626693D01*
X629922Y625000D01*
X633307D01*
X635000Y623307D01*
Y621614D01*
X633307Y619922D01*
X629922D01*
X628229Y621614D01*
X638386Y619922D02*
X641771D01*
X640078D01*
Y630078D01*
X638386Y628386D01*
X754307Y822078D02*
X750922D01*
X752614D01*
Y813614D01*
X750922Y811922D01*
X749229D01*
X747536Y813614D01*
X757693Y820386D02*
X759386Y822078D01*
X762771D01*
X764464Y820386D01*
Y818693D01*
X762771Y817000D01*
X761078D01*
X762771D01*
X764464Y815307D01*
Y813614D01*
X762771Y811922D01*
X759386D01*
X757693Y813614D01*
X797307Y603078D02*
X793922D01*
X795614D01*
Y594614D01*
X793922Y592922D01*
X792229D01*
X790536Y594614D01*
X807464Y592922D02*
X800693D01*
X807464Y599693D01*
Y601386D01*
X805771Y603078D01*
X802386D01*
X800693Y601386D01*
X978400Y567307D02*
Y576194D01*
X982844D01*
X984325Y574712D01*
Y571750D01*
X982844Y570269D01*
X978400D01*
X981363D02*
X984325Y567307D01*
X993212D02*
X987288D01*
X993212Y573231D01*
Y574712D01*
X991731Y576194D01*
X988769D01*
X987288Y574712D01*
X996175Y576194D02*
X1002100D01*
Y574712D01*
X996175Y568788D01*
Y567307D01*
X1005650Y567556D02*
Y576444D01*
X1010094D01*
X1011575Y574962D01*
Y572000D01*
X1010094Y570519D01*
X1005650D01*
X1008613D02*
X1011575Y567556D01*
X1020462D02*
X1014538D01*
X1020462Y573481D01*
Y574962D01*
X1018981Y576444D01*
X1016019D01*
X1014538Y574962D01*
X1029350Y576444D02*
X1026387Y574962D01*
X1023425Y572000D01*
Y569038D01*
X1024906Y567556D01*
X1027868D01*
X1029350Y569038D01*
Y570519D01*
X1027868Y572000D01*
X1023425D01*
X925708Y610078D02*
Y599922D01*
X930786D01*
X932479Y601614D01*
Y608386D01*
X930786Y610078D01*
X925708D01*
X942636Y608386D02*
X940943Y610078D01*
X937557D01*
X935864Y608386D01*
Y606693D01*
X937557Y605000D01*
X940943D01*
X942636Y603307D01*
Y601614D01*
X940943Y599922D01*
X937557D01*
X935864Y601614D01*
X952792Y599922D02*
X946021D01*
X952792Y606693D01*
Y608386D01*
X951099Y610078D01*
X947714D01*
X946021Y608386D01*
X1047651Y609328D02*
Y599172D01*
X1052729D01*
X1054422Y600864D01*
Y607636D01*
X1052729Y609328D01*
X1047651D01*
X1064578Y607636D02*
X1062886Y609328D01*
X1059500D01*
X1057807Y607636D01*
Y605943D01*
X1059500Y604250D01*
X1062886D01*
X1064578Y602557D01*
Y600864D01*
X1062886Y599172D01*
X1059500D01*
X1057807Y600864D01*
X1067964Y599172D02*
X1071349D01*
X1069657D01*
Y609328D01*
X1067964Y607636D01*
X945229Y485078D02*
X952000Y474922D01*
Y485078D02*
X945229Y474922D01*
X955386D02*
X958771D01*
X957078D01*
Y485078D01*
X955386Y483386D01*
X820151Y880078D02*
Y873307D01*
X823536Y869922D01*
X826922Y873307D01*
Y880078D01*
X830307Y869922D02*
Y880078D01*
X835386D01*
X837078Y878386D01*
Y875000D01*
X835386Y873307D01*
X830307D01*
X833693D02*
X837078Y869922D01*
X840464D02*
X843849D01*
X842157D01*
Y880078D01*
X840464Y878386D01*
X624304Y495078D02*
Y486614D01*
X625997Y484922D01*
X629383D01*
X631075Y486614D01*
Y495078D01*
X634461Y484922D02*
X637846D01*
X636154D01*
Y495078D01*
X634461Y493386D01*
X642925Y486614D02*
X644618Y484922D01*
X648003D01*
X649696Y486614D01*
Y493386D01*
X648003Y495078D01*
X644618D01*
X642925Y493386D01*
Y491693D01*
X644618Y490000D01*
X649696D01*
X841248Y573021D02*
Y564557D01*
X842941Y562864D01*
X846326D01*
X848019Y564557D01*
Y573021D01*
X851405Y562864D02*
X854790D01*
X853098D01*
Y573021D01*
X851405Y571328D01*
X866640Y562864D02*
X859869D01*
X866640Y569635D01*
Y571328D01*
X864947Y573021D01*
X861561D01*
X859869Y571328D01*
X641096Y938943D02*
Y930479D01*
X642789Y928786D01*
X646174D01*
X647867Y930479D01*
Y938943D01*
X656331Y928786D02*
Y938943D01*
X651253Y933864D01*
X658024D01*
X942594Y938943D02*
Y930479D01*
X944287Y928786D01*
X947672D01*
X949365Y930479D01*
Y938943D01*
X959522Y928786D02*
X952751D01*
X959522Y935557D01*
Y937250D01*
X957829Y938943D01*
X954444D01*
X952751Y937250D01*
X595229Y591078D02*
Y582614D01*
X596922Y580922D01*
X600307D01*
X602000Y582614D01*
Y591078D01*
X605386Y580922D02*
X608771D01*
X607078D01*
Y591078D01*
X605386Y589386D01*
X388366Y805342D02*
Y815499D01*
X393444D01*
X395137Y813806D01*
Y810420D01*
X393444Y808728D01*
X388366D01*
X391752D02*
X395137Y805342D01*
X405294D02*
X398523D01*
X405294Y812113D01*
Y813806D01*
X403601Y815499D01*
X400215D01*
X398523Y813806D01*
X415451Y815499D02*
X408679D01*
Y810420D01*
X412065Y812113D01*
X413758D01*
X415451Y810420D01*
Y807035D01*
X413758Y805342D01*
X410372D01*
X408679Y807035D01*
X572458Y890922D02*
Y901078D01*
X577536D01*
X579229Y899386D01*
Y896000D01*
X577536Y894307D01*
X572458D01*
X575843D02*
X579229Y890922D01*
X589386D02*
X582614D01*
X589386Y897693D01*
Y899386D01*
X587693Y901078D01*
X584307D01*
X582614Y899386D01*
X597850Y890922D02*
Y901078D01*
X592771Y896000D01*
X599542D01*
X490458Y854922D02*
Y865078D01*
X495536D01*
X497229Y863386D01*
Y860000D01*
X495536Y858307D01*
X490458D01*
X493843D02*
X497229Y854922D01*
X507386D02*
X500614D01*
X507386Y861693D01*
Y863386D01*
X505693Y865078D01*
X502307D01*
X500614Y863386D01*
X510771D02*
X512464Y865078D01*
X515849D01*
X517542Y863386D01*
Y861693D01*
X515849Y860000D01*
X514157D01*
X515849D01*
X517542Y858307D01*
Y856614D01*
X515849Y854922D01*
X512464D01*
X510771Y856614D01*
X508458Y885922D02*
Y896078D01*
X513536D01*
X515229Y894386D01*
Y891000D01*
X513536Y889307D01*
X508458D01*
X511843D02*
X515229Y885922D01*
X525386D02*
X518614D01*
X525386Y892693D01*
Y894386D01*
X523693Y896078D01*
X520307D01*
X518614Y894386D01*
X535542Y885922D02*
X528771D01*
X535542Y892693D01*
Y894386D01*
X533849Y896078D01*
X530464D01*
X528771Y894386D01*
X574151Y871922D02*
Y882078D01*
X579229D01*
X580922Y880386D01*
Y877000D01*
X579229Y875307D01*
X574151D01*
X577536D02*
X580922Y871922D01*
X591078D02*
X584307D01*
X591078Y878693D01*
Y880386D01*
X589386Y882078D01*
X586000D01*
X584307Y880386D01*
X594464Y871922D02*
X597850D01*
X596157D01*
Y882078D01*
X594464Y880386D01*
X1052458Y504922D02*
Y515078D01*
X1057536D01*
X1059229Y513386D01*
Y510000D01*
X1057536Y508307D01*
X1052458D01*
X1055843D02*
X1059229Y504922D01*
X1069386D02*
X1062614D01*
X1069386Y511693D01*
Y513386D01*
X1067693Y515078D01*
X1064307D01*
X1062614Y513386D01*
X1072771D02*
X1074464Y515078D01*
X1077850D01*
X1079542Y513386D01*
Y506614D01*
X1077850Y504922D01*
X1074464D01*
X1072771Y506614D01*
Y513386D01*
X766304Y884922D02*
Y895078D01*
X771383D01*
X773075Y893386D01*
Y890000D01*
X771383Y888307D01*
X766304D01*
X769690D02*
X773075Y884922D01*
X776461D02*
X779846D01*
X778154D01*
Y895078D01*
X776461Y893386D01*
X784925Y886614D02*
X786618Y884922D01*
X790003D01*
X791696Y886614D01*
Y893386D01*
X790003Y895078D01*
X786618D01*
X784925Y893386D01*
Y891693D01*
X786618Y890000D01*
X791696D01*
X930304Y549922D02*
Y560078D01*
X935383D01*
X937075Y558386D01*
Y555000D01*
X935383Y553307D01*
X930304D01*
X933690D02*
X937075Y549922D01*
X940461D02*
X943846D01*
X942154D01*
Y560078D01*
X940461Y558386D01*
X948925D02*
X950618Y560078D01*
X954003D01*
X955696Y558386D01*
Y556693D01*
X954003Y555000D01*
X955696Y553307D01*
Y551614D01*
X954003Y549922D01*
X950618D01*
X948925Y551614D01*
Y553307D01*
X950618Y555000D01*
X948925Y556693D01*
Y558386D01*
X950618Y555000D02*
X954003D01*
X634804Y842422D02*
Y852578D01*
X639883D01*
X641575Y850886D01*
Y847500D01*
X639883Y845807D01*
X634804D01*
X638190D02*
X641575Y842422D01*
X644961D02*
X648346D01*
X646654D01*
Y852578D01*
X644961Y850886D01*
X653425Y852578D02*
X660196D01*
Y850886D01*
X653425Y844114D01*
Y842422D01*
X747304Y839922D02*
Y850078D01*
X752383D01*
X754075Y848386D01*
Y845000D01*
X752383Y843307D01*
X747304D01*
X750690D02*
X754075Y839922D01*
X757461D02*
X760846D01*
X759154D01*
Y850078D01*
X757461Y848386D01*
X772696Y850078D02*
X769310Y848386D01*
X765925Y845000D01*
Y841614D01*
X767618Y839922D01*
X771003D01*
X772696Y841614D01*
Y843307D01*
X771003Y845000D01*
X765925D01*
X731304Y592922D02*
Y603078D01*
X736383D01*
X738075Y601386D01*
Y598000D01*
X736383Y596307D01*
X731304D01*
X734690D02*
X738075Y592922D01*
X741461D02*
X744846D01*
X743154D01*
Y603078D01*
X741461Y601386D01*
X756696Y603078D02*
X749925D01*
Y598000D01*
X753310Y599693D01*
X755003D01*
X756696Y598000D01*
Y594614D01*
X755003Y592922D01*
X751618D01*
X749925Y594614D01*
X788304Y839922D02*
Y850078D01*
X793382D01*
X795075Y848386D01*
Y845000D01*
X793382Y843307D01*
X788304D01*
X791690D02*
X795075Y839922D01*
X798461D02*
X801846D01*
X800154D01*
Y850078D01*
X798461Y848386D01*
X812003Y839922D02*
Y850078D01*
X806925Y845000D01*
X813696D01*
X632304Y827422D02*
Y837578D01*
X637383D01*
X639075Y835886D01*
Y832500D01*
X637383Y830807D01*
X632304D01*
X635690D02*
X639075Y827422D01*
X642461D02*
X645846D01*
X644154D01*
Y837578D01*
X642461Y835886D01*
X650925D02*
X652618Y837578D01*
X656003D01*
X657696Y835886D01*
Y834193D01*
X656003Y832500D01*
X654310D01*
X656003D01*
X657696Y830807D01*
Y829114D01*
X656003Y827422D01*
X652618D01*
X650925Y829114D01*
X1056304Y566922D02*
Y577078D01*
X1061383D01*
X1063075Y575386D01*
Y572000D01*
X1061383Y570307D01*
X1056304D01*
X1059690D02*
X1063075Y566922D01*
X1066461D02*
X1069846D01*
X1068154D01*
Y577078D01*
X1066461Y575386D01*
X1081696Y566922D02*
X1074925D01*
X1081696Y573693D01*
Y575386D01*
X1080003Y577078D01*
X1076618D01*
X1074925Y575386D01*
X890997Y830922D02*
Y841078D01*
X896075D01*
X897768Y839386D01*
Y836000D01*
X896075Y834307D01*
X890997D01*
X894382D02*
X897768Y830922D01*
X901154D02*
X904539D01*
X902846D01*
Y841078D01*
X901154Y839386D01*
X909618Y830922D02*
X913003D01*
X911310D01*
Y841078D01*
X909618Y839386D01*
X794554Y393672D02*
Y403828D01*
X799632D01*
X801325Y402136D01*
Y398750D01*
X799632Y397057D01*
X794554D01*
X797940D02*
X801325Y393672D01*
X804711D02*
X808096D01*
X806404D01*
Y403828D01*
X804711Y402136D01*
X813175D02*
X814868Y403828D01*
X818253D01*
X819946Y402136D01*
Y395364D01*
X818253Y393672D01*
X814868D01*
X813175Y395364D01*
Y402136D01*
X1016536Y837922D02*
Y848078D01*
X1021614D01*
X1023307Y846386D01*
Y843000D01*
X1021614Y841307D01*
X1016536D01*
X1019922D02*
X1023307Y837922D01*
X1026693Y839614D02*
X1028386Y837922D01*
X1031771D01*
X1033464Y839614D01*
Y846386D01*
X1031771Y848078D01*
X1028386D01*
X1026693Y846386D01*
Y844693D01*
X1028386Y843000D01*
X1033464D01*
X1197536Y825922D02*
Y836078D01*
X1202614D01*
X1204307Y834386D01*
Y831000D01*
X1202614Y829307D01*
X1197536D01*
X1200922D02*
X1204307Y825922D01*
X1207693Y834386D02*
X1209386Y836078D01*
X1212771D01*
X1214464Y834386D01*
Y832693D01*
X1212771Y831000D01*
X1214464Y829307D01*
Y827614D01*
X1212771Y825922D01*
X1209386D01*
X1207693Y827614D01*
Y829307D01*
X1209386Y831000D01*
X1207693Y832693D01*
Y834386D01*
X1209386Y831000D02*
X1212771D01*
X1066536Y910922D02*
Y921078D01*
X1071614D01*
X1073307Y919386D01*
Y916000D01*
X1071614Y914307D01*
X1066536D01*
X1069922D02*
X1073307Y910922D01*
X1076693Y921078D02*
X1083464D01*
Y919386D01*
X1076693Y912614D01*
Y910922D01*
X1067536Y863922D02*
Y874078D01*
X1072614D01*
X1074307Y872386D01*
Y869000D01*
X1072614Y867307D01*
X1067536D01*
X1070922D02*
X1074307Y863922D01*
X1084464Y874078D02*
X1081078Y872386D01*
X1077693Y869000D01*
Y865614D01*
X1079386Y863922D01*
X1082771D01*
X1084464Y865614D01*
Y867307D01*
X1082771Y869000D01*
X1077693D01*
X1129536Y871922D02*
Y882078D01*
X1134614D01*
X1136307Y880386D01*
Y877000D01*
X1134614Y875307D01*
X1129536D01*
X1132922D02*
X1136307Y871922D01*
X1146464Y882078D02*
X1139693D01*
Y877000D01*
X1143078Y878693D01*
X1144771D01*
X1146464Y877000D01*
Y873614D01*
X1144771Y871922D01*
X1141386D01*
X1139693Y873614D01*
X1067536Y876922D02*
Y887078D01*
X1072614D01*
X1074307Y885386D01*
Y882000D01*
X1072614Y880307D01*
X1067536D01*
X1070922D02*
X1074307Y876922D01*
X1082771D02*
Y887078D01*
X1077693Y882000D01*
X1084464D01*
X1220536Y826922D02*
Y837078D01*
X1225614D01*
X1227307Y835386D01*
Y832000D01*
X1225614Y830307D01*
X1220536D01*
X1223922D02*
X1227307Y826922D01*
X1230693Y835386D02*
X1232386Y837078D01*
X1235771D01*
X1237464Y835386D01*
Y833693D01*
X1235771Y832000D01*
X1234078D01*
X1235771D01*
X1237464Y830307D01*
Y828614D01*
X1235771Y826922D01*
X1232386D01*
X1230693Y828614D01*
X1271536Y808922D02*
Y819078D01*
X1276614D01*
X1278307Y817386D01*
Y814000D01*
X1276614Y812307D01*
X1271536D01*
X1274922D02*
X1278307Y808922D01*
X1288464D02*
X1281693D01*
X1288464Y815693D01*
Y817386D01*
X1286771Y819078D01*
X1283386D01*
X1281693Y817386D01*
X870229Y830922D02*
Y841078D01*
X875307D01*
X877000Y839386D01*
Y836000D01*
X875307Y834307D01*
X870229D01*
X873614D02*
X877000Y830922D01*
X880386D02*
X883771D01*
X882078D01*
Y841078D01*
X880386Y839386D01*
X1065307Y537614D02*
Y544386D01*
X1063614Y546078D01*
X1060229D01*
X1058536Y544386D01*
Y537614D01*
X1060229Y535922D01*
X1063614D01*
X1061922Y539307D02*
X1065307Y535922D01*
X1063614D02*
X1065307Y537614D01*
X1075464Y535922D02*
X1068693D01*
X1075464Y542693D01*
Y544386D01*
X1073771Y546078D01*
X1070386D01*
X1068693Y544386D01*
X729500Y405114D02*
Y411886D01*
X727807Y413578D01*
X724422D01*
X722729Y411886D01*
Y405114D01*
X724422Y403422D01*
X727807D01*
X726114Y406807D02*
X729500Y403422D01*
X727807D02*
X729500Y405114D01*
X732886Y403422D02*
X736271D01*
X734578D01*
Y413578D01*
X732886Y411886D01*
X951000Y531328D02*
X947614D01*
X949307D01*
Y522864D01*
X947614Y521172D01*
X945922D01*
X944229Y522864D01*
X954386Y521172D02*
X957771D01*
X956078D01*
Y531328D01*
X954386Y529636D01*
X792729Y435828D02*
Y425672D01*
X797807D01*
X799500Y427364D01*
Y434136D01*
X797807Y435828D01*
X792729D01*
X802886Y425672D02*
X806271D01*
X804578D01*
Y435828D01*
X802886Y434136D01*
X1056075Y493386D02*
X1054382Y495078D01*
X1050997D01*
X1049304Y493386D01*
Y486614D01*
X1050997Y484922D01*
X1054382D01*
X1056075Y486614D01*
X1059461Y484922D02*
X1062846D01*
X1061154D01*
Y495078D01*
X1059461Y493386D01*
X1067925D02*
X1069618Y495078D01*
X1073003D01*
X1074696Y493386D01*
Y491693D01*
X1073003Y490000D01*
X1071310D01*
X1073003D01*
X1074696Y488307D01*
Y486614D01*
X1073003Y484922D01*
X1069618D01*
X1067925Y486614D01*
X922075Y453386D02*
X920383Y455078D01*
X916997D01*
X915304Y453386D01*
Y446614D01*
X916997Y444922D01*
X920383D01*
X922075Y446614D01*
X925461Y444922D02*
X928846D01*
X927154D01*
Y455078D01*
X925461Y453386D01*
X940696Y444922D02*
X933925D01*
X940696Y451693D01*
Y453386D01*
X939003Y455078D01*
X935618D01*
X933925Y453386D01*
X883768Y593386D02*
X882075Y595078D01*
X878690D01*
X876997Y593386D01*
Y586614D01*
X878690Y584922D01*
X882075D01*
X883768Y586614D01*
X887154Y584922D02*
X890539D01*
X888846D01*
Y595078D01*
X887154Y593386D01*
X895618Y584922D02*
X899003D01*
X897310D01*
Y595078D01*
X895618Y593386D01*
X860075Y417386D02*
X858382Y419078D01*
X854997D01*
X853304Y417386D01*
Y410614D01*
X854997Y408922D01*
X858382D01*
X860075Y410614D01*
X863461Y408922D02*
X866846D01*
X865154D01*
Y419078D01*
X863461Y417386D01*
X871925D02*
X873618Y419078D01*
X877003D01*
X878696Y417386D01*
Y410614D01*
X877003Y408922D01*
X873618D01*
X871925Y410614D01*
Y417386D01*
X895307D02*
X893614Y419078D01*
X890229D01*
X888536Y417386D01*
Y410614D01*
X890229Y408922D01*
X893614D01*
X895307Y410614D01*
X898693D02*
X900386Y408922D01*
X903771D01*
X905464Y410614D01*
Y417386D01*
X903771Y419078D01*
X900386D01*
X898693Y417386D01*
Y415693D01*
X900386Y414000D01*
X905464D01*
X920307Y591386D02*
X918614Y593078D01*
X915229D01*
X913536Y591386D01*
Y584614D01*
X915229Y582922D01*
X918614D01*
X920307Y584614D01*
X923693Y591386D02*
X925386Y593078D01*
X928771D01*
X930464Y591386D01*
Y589693D01*
X928771Y588000D01*
X930464Y586307D01*
Y584614D01*
X928771Y582922D01*
X925386D01*
X923693Y584614D01*
Y586307D01*
X925386Y588000D01*
X923693Y589693D01*
Y591386D01*
X925386Y588000D02*
X928771D01*
X573307Y493386D02*
X571614Y495078D01*
X568229D01*
X566536Y493386D01*
Y486614D01*
X568229Y484922D01*
X571614D01*
X573307Y486614D01*
X576693Y495078D02*
X583464D01*
Y493386D01*
X576693Y486614D01*
Y484922D01*
X793807Y473886D02*
X792114Y475578D01*
X788729D01*
X787036Y473886D01*
Y467114D01*
X788729Y465422D01*
X792114D01*
X793807Y467114D01*
X803964Y475578D02*
X800578Y473886D01*
X797193Y470500D01*
Y467114D01*
X798886Y465422D01*
X802271D01*
X803964Y467114D01*
Y468807D01*
X802271Y470500D01*
X797193D01*
X899307Y945386D02*
X897614Y947078D01*
X894229D01*
X892536Y945386D01*
Y938614D01*
X894229Y936922D01*
X897614D01*
X899307Y938614D01*
X909464Y947078D02*
X902693D01*
Y942000D01*
X906078Y943693D01*
X907771D01*
X909464Y942000D01*
Y938614D01*
X907771Y936922D01*
X904386D01*
X902693Y938614D01*
X792307Y564386D02*
X790614Y566078D01*
X787229D01*
X785536Y564386D01*
Y557614D01*
X787229Y555922D01*
X790614D01*
X792307Y557614D01*
X800771Y555922D02*
Y566078D01*
X795693Y561000D01*
X802464D01*
X720557Y483386D02*
X718864Y485078D01*
X715479D01*
X713786Y483386D01*
Y476614D01*
X715479Y474922D01*
X718864D01*
X720557Y476614D01*
X723943Y483386D02*
X725636Y485078D01*
X729021D01*
X730714Y483386D01*
Y481693D01*
X729021Y480000D01*
X727328D01*
X729021D01*
X730714Y478307D01*
Y476614D01*
X729021Y474922D01*
X725636D01*
X723943Y476614D01*
X799057Y510386D02*
X797364Y512078D01*
X793979D01*
X792286Y510386D01*
Y503614D01*
X793979Y501922D01*
X797364D01*
X799057Y503614D01*
X809214Y501922D02*
X802443D01*
X809214Y508693D01*
Y510386D01*
X807521Y512078D01*
X804136D01*
X802443Y510386D01*
X732000Y532386D02*
X730307Y534078D01*
X726922D01*
X725229Y532386D01*
Y525614D01*
X726922Y523922D01*
X730307D01*
X732000Y525614D01*
X735386Y523922D02*
X738771D01*
X737078D01*
Y534078D01*
X735386Y532386D01*
D16*
X999500Y598000D02*
Y610500D01*
X957750Y597750D02*
Y610250D01*
M02*
