G04*
G04 #@! TF.GenerationSoftware,Altium Limited,Altium Designer,23.10.1 (27)*
G04*
G04 Layer_Color=16711935*
%FSLAX44Y44*%
%MOMM*%
G71*
G04*
G04 #@! TF.SameCoordinates,E985FA8A-299A-4084-AA3F-4317102C53E2*
G04*
G04*
G04 #@! TF.FilePolarity,Negative*
G04*
G01*
G75*
%ADD48C,1.5700*%
%ADD49R,1.5700X1.5700*%
%ADD50C,1.8382*%
%ADD51R,1.8382X1.8382*%
%ADD52C,4.2032*%
%ADD53O,2.7032X4.2032*%
%ADD54R,1.4532X1.4532*%
%ADD55C,1.4532*%
%ADD56C,1.5732*%
%ADD57R,1.5732X1.5732*%
%ADD58C,1.2102*%
%ADD74R,0.8932X1.7732*%
D48*
X489000Y618000D02*
D03*
D49*
X514400D02*
D03*
D50*
X688000Y626000D02*
D03*
X662600D02*
D03*
D51*
X713400D02*
D03*
D52*
X567500Y615000D02*
D03*
Y842500D02*
D03*
X1101000Y844000D02*
D03*
X1101000Y621000D02*
D03*
Y441000D02*
D03*
X1305000Y615000D02*
D03*
Y435000D02*
D03*
X567500Y435000D02*
D03*
X365000Y435000D02*
D03*
Y615000D02*
D03*
D53*
X450000Y619000D02*
D03*
X419520D02*
D03*
X1246480Y616000D02*
D03*
X1216000D02*
D03*
D54*
X855400Y919650D02*
D03*
D55*
X830000Y894250D02*
D03*
X804600Y919650D02*
D03*
D56*
X1000000Y501200D02*
D03*
X974600D02*
D03*
X1000000Y526600D02*
D03*
X974600D02*
D03*
X1000000Y552000D02*
D03*
D57*
X974600D02*
D03*
D58*
X1026800Y447000D02*
D03*
X978000D02*
D03*
D74*
X491000Y879750D02*
D03*
X509000D02*
D03*
X491000Y840250D02*
D03*
X509000D02*
D03*
X352000Y810000D02*
D03*
X370000D02*
D03*
X352000Y770500D02*
D03*
X370000D02*
D03*
X632000Y920000D02*
D03*
X650000D02*
D03*
X632000Y880500D02*
D03*
X650000D02*
D03*
X761000Y939750D02*
D03*
X779000D02*
D03*
X761000Y900250D02*
D03*
X779000D02*
D03*
X891000Y939750D02*
D03*
X909000D02*
D03*
X891000Y900250D02*
D03*
X909000D02*
D03*
X1301000Y809750D02*
D03*
X1319000D02*
D03*
X1301000Y770250D02*
D03*
X1319000D02*
D03*
X1161000Y879750D02*
D03*
X1179000D02*
D03*
X1161000Y840250D02*
D03*
X1179000D02*
D03*
X1021000Y919750D02*
D03*
X1039000D02*
D03*
X1021000Y880250D02*
D03*
X1039000D02*
D03*
M02*
