G04*
G04 #@! TF.GenerationSoftware,Altium Limited,Altium Designer,23.10.1 (27)*
G04*
G04 Layer_Physical_Order=1*
G04 Layer_Color=255*
%FSLAX44Y44*%
%MOMM*%
G71*
G04*
G04 #@! TF.SameCoordinates,E985FA8A-299A-4084-AA3F-4317102C53E2*
G04*
G04*
G04 #@! TF.FilePolarity,Positive*
G04*
G01*
G75*
%ADD17R,2.1500X0.9500*%
%ADD18R,2.1500X3.2500*%
%ADD19R,1.3500X1.1000*%
%ADD20R,0.8500X1.3000*%
%ADD21R,0.5800X1.1800*%
%ADD22R,1.3000X0.8500*%
%ADD23R,0.6000X2.2000*%
%ADD24R,1.8000X2.6000*%
%ADD25R,1.9536X0.4321*%
G04:AMPARAMS|DCode=26|XSize=1.9536mm|YSize=0.4321mm|CornerRadius=0.2161mm|HoleSize=0mm|Usage=FLASHONLY|Rotation=0.000|XOffset=0mm|YOffset=0mm|HoleType=Round|Shape=RoundedRectangle|*
%AMROUNDEDRECTD26*
21,1,1.9536,0.0000,0,0,0.0*
21,1,1.5215,0.4321,0,0,0.0*
1,1,0.4321,0.7607,0.0000*
1,1,0.4321,-0.7607,0.0000*
1,1,0.4321,-0.7607,0.0000*
1,1,0.4321,0.7607,0.0000*
%
%ADD26ROUNDEDRECTD26*%
%ADD27R,2.1300X1.4200*%
%ADD28R,1.4200X2.1300*%
%ADD29R,1.4000X1.0000*%
%ADD30R,0.8300X0.6300*%
%ADD31R,1.2000X1.2000*%
%ADD32R,1.1000X1.3500*%
%ADD33O,1.3500X0.5500*%
%ADD34O,0.5500X1.3500*%
%ADD48C,1.5700*%
%ADD49R,1.5700X1.5700*%
%ADD59C,0.3810*%
%ADD60C,0.7620*%
%ADD61C,0.5080*%
%ADD62C,0.3048*%
%ADD63C,1.6350*%
%ADD64R,1.6350X1.6350*%
%ADD65C,4.0000*%
%ADD66O,2.5000X4.0000*%
%ADD67R,1.2500X1.2500*%
%ADD68C,1.2500*%
%ADD69C,1.3700*%
%ADD70R,1.3700X1.3700*%
%ADD71C,1.0070*%
%ADD72C,0.5000*%
G36*
X971210Y963302D02*
X971014Y962032D01*
X902500D01*
X902500Y962032D01*
X900766Y961687D01*
X899295Y960705D01*
X896310Y957719D01*
X895040Y958245D01*
Y959003D01*
X894273Y960855D01*
X892855Y962273D01*
X891003Y963040D01*
X888997D01*
X887145Y962273D01*
X885727Y960855D01*
X884960Y959003D01*
Y957119D01*
X882881Y955040D01*
X876369D01*
X869205Y962205D01*
X867734Y963187D01*
X866000Y963532D01*
X779000D01*
X777266Y963187D01*
X775795Y962205D01*
X741632Y928041D01*
X740362Y928567D01*
Y929681D01*
X739594Y931533D01*
X738177Y932951D01*
X736950Y933459D01*
X724205Y946205D01*
X722734Y947187D01*
X721000Y947532D01*
X707000D01*
X707000Y947532D01*
X705266Y947187D01*
X703795Y946205D01*
X694371Y936781D01*
X693302Y936338D01*
X692952Y936382D01*
X692857Y936420D01*
X691956Y936880D01*
X691687Y938234D01*
X690705Y939705D01*
X688205Y942205D01*
X686734Y943187D01*
X685000Y943532D01*
X641000D01*
X640302Y943393D01*
X639757Y943328D01*
X639488Y944575D01*
X720000Y970000D01*
X950000D01*
X971210Y963302D01*
D02*
G37*
G36*
X865885Y952705D02*
X865399Y951532D01*
X847000D01*
X845266Y951187D01*
X843795Y950205D01*
X843795Y950205D01*
X826795Y933205D01*
X825813Y931734D01*
X825468Y930000D01*
Y901783D01*
X824603Y901284D01*
X822966Y899647D01*
X821809Y897643D01*
X821210Y895407D01*
Y893093D01*
X821809Y890857D01*
X822966Y888853D01*
X824603Y887216D01*
X826607Y886059D01*
X828843Y885460D01*
X831157D01*
X833393Y886059D01*
X835397Y887216D01*
X837034Y888853D01*
X838191Y890857D01*
X838790Y893093D01*
Y895407D01*
X838191Y897643D01*
X837034Y899647D01*
X835397Y901284D01*
X834532Y901783D01*
Y928123D01*
X848877Y942468D01*
X870710D01*
Y934270D01*
X880000D01*
Y933000D01*
X881270D01*
Y924960D01*
X889255D01*
X890128Y924037D01*
X848217Y882127D01*
X846972Y882374D01*
X846773Y882855D01*
X845355Y884273D01*
X843503Y885040D01*
X841497D01*
X839645Y884273D01*
X838227Y882855D01*
X837719Y881629D01*
X813213Y857123D01*
X812040Y857609D01*
Y865790D01*
X800093D01*
X799655Y865877D01*
X799282D01*
X797123Y868037D01*
X797609Y869210D01*
X812040D01*
Y882790D01*
X807532D01*
Y886771D01*
X808040Y887998D01*
Y890003D01*
X807273Y891855D01*
X805855Y893273D01*
X804003Y894040D01*
X801998D01*
X800145Y893273D01*
X798727Y891855D01*
X797960Y890003D01*
Y887998D01*
X798468Y886771D01*
Y882790D01*
X793960D01*
Y872859D01*
X792787Y872373D01*
X789040Y876119D01*
Y883290D01*
X784532D01*
Y893173D01*
X802478Y911118D01*
X803443Y910860D01*
X805757D01*
X807993Y911459D01*
X809997Y912616D01*
X811634Y914253D01*
X812791Y916257D01*
X813390Y918493D01*
Y920807D01*
X812791Y923043D01*
X811634Y925047D01*
X809997Y926684D01*
X807993Y927841D01*
X805757Y928440D01*
X803443D01*
X801207Y927841D01*
X799203Y926684D01*
X797566Y925047D01*
X796409Y923043D01*
X795810Y920807D01*
Y918493D01*
X796068Y917528D01*
X776795Y898255D01*
X775813Y896784D01*
X775468Y895050D01*
Y883290D01*
X766532D01*
Y919771D01*
X767040Y920997D01*
Y923002D01*
X766273Y924855D01*
X764855Y926273D01*
X763002Y927040D01*
X760997D01*
X759145Y926273D01*
X757727Y924855D01*
X756960Y923002D01*
Y920997D01*
X757468Y919771D01*
Y883290D01*
X755707D01*
X754859Y884560D01*
X755040Y884997D01*
Y887002D01*
X754273Y888855D01*
X752855Y890273D01*
X751003Y891040D01*
X748997D01*
X747802Y890545D01*
X746532Y891319D01*
Y894700D01*
X746532Y894700D01*
X746187Y896434D01*
X745205Y897905D01*
X731276Y911833D01*
X731411Y913135D01*
X732310Y913563D01*
X738095D01*
X739829Y913908D01*
X741300Y914890D01*
X780877Y954468D01*
X864123D01*
X865885Y952705D01*
D02*
G37*
G36*
X572585Y911044D02*
X572774Y910663D01*
X572160Y909181D01*
X577089D01*
Y906641D01*
X572160D01*
X572817Y905056D01*
X574234Y903638D01*
X575460Y903130D01*
X588219Y890371D01*
X588727Y889145D01*
X590070Y887802D01*
X590040Y887437D01*
X589712Y886532D01*
X584175D01*
X572502Y898205D01*
X571032Y899187D01*
X569297Y899532D01*
X556040D01*
Y901790D01*
X545496D01*
X545297Y903044D01*
X572002Y911747D01*
X572585Y911044D01*
D02*
G37*
G36*
X904468Y913899D02*
Y876383D01*
X904040Y875290D01*
X899532D01*
Y877000D01*
X899187Y878734D01*
X898205Y880205D01*
X897781Y880629D01*
X897273Y881855D01*
X895855Y883273D01*
X894003Y884040D01*
X891998D01*
X890145Y883273D01*
X888727Y881855D01*
X887960Y880003D01*
Y877998D01*
X888555Y876560D01*
X887923Y875290D01*
X874369D01*
X869284Y880375D01*
X903295Y914385D01*
X904468Y913899D01*
D02*
G37*
G36*
X957040Y930563D02*
X957070Y930198D01*
X955727Y928855D01*
X954960Y927002D01*
Y924997D01*
X955068Y924737D01*
Y922540D01*
X954160D01*
Y905660D01*
X965040D01*
Y922540D01*
X965040Y922540D01*
X964548Y923810D01*
X965040Y924997D01*
Y926755D01*
X965740Y927226D01*
X966213Y927377D01*
X967768Y925823D01*
Y922540D01*
X966860D01*
Y905660D01*
X977740D01*
Y922540D01*
X976832D01*
Y927700D01*
X976594Y928898D01*
X977408Y930168D01*
X980381D01*
X980867Y928995D01*
X980727Y928855D01*
X979960Y927002D01*
Y924997D01*
X980468Y923771D01*
Y922540D01*
X979560D01*
Y905660D01*
X990440D01*
Y922540D01*
X989532D01*
Y923771D01*
X990040Y924997D01*
Y927002D01*
X989508Y928286D01*
X990585Y929006D01*
X992660Y926931D01*
Y926697D01*
X993168Y925471D01*
Y922540D01*
X992260D01*
Y905660D01*
X1003140D01*
Y922540D01*
X1002232D01*
Y925471D01*
X1002740Y926697D01*
Y928702D01*
X1002491Y929304D01*
X1003568Y930023D01*
X1005868Y927723D01*
Y922540D01*
X1004960D01*
Y905660D01*
X1015840D01*
Y922540D01*
X1014932D01*
Y926999D01*
X1016105Y927485D01*
X1018568Y925023D01*
Y922540D01*
X1017660D01*
Y905660D01*
X1028540D01*
Y909468D01*
X1031123D01*
X1038468Y902123D01*
Y890040D01*
X1036210D01*
Y871960D01*
X1035710Y871040D01*
X1035710D01*
Y865532D01*
X1028540D01*
Y869340D01*
X1017660D01*
Y852460D01*
X1017660D01*
X1017909Y852087D01*
X1017460Y851003D01*
Y848997D01*
X1017748Y848302D01*
X1016899Y847032D01*
X1014932D01*
Y852460D01*
X1015840D01*
Y869340D01*
X1004960D01*
Y852460D01*
X1005868D01*
Y845496D01*
X1005727Y845355D01*
X1004960Y843503D01*
Y841497D01*
X1005727Y839645D01*
X1007145Y838227D01*
X1008997Y837460D01*
X1011003D01*
X1012229Y837968D01*
X1020762D01*
X1021289Y836698D01*
X1016123Y831532D01*
X967877D01*
X964132Y835277D01*
Y852460D01*
X965040D01*
Y869340D01*
X954160D01*
Y852460D01*
X955068D01*
Y833400D01*
X955413Y831666D01*
X956395Y830195D01*
X962789Y823802D01*
X962788Y823773D01*
X962400Y822532D01*
X949288D01*
X948960Y823437D01*
X948930Y823802D01*
X950273Y825145D01*
X951040Y826998D01*
Y829003D01*
X950273Y830855D01*
X948855Y832273D01*
X947002Y833040D01*
X944997D01*
X944553Y832856D01*
X932532Y844877D01*
Y860062D01*
X933802Y860589D01*
X936695Y857695D01*
X936695Y857695D01*
X938166Y856713D01*
X939900Y856368D01*
X939900Y856368D01*
X941460D01*
Y852460D01*
X941460D01*
X942038Y851190D01*
X941960Y851003D01*
Y848997D01*
X942727Y847145D01*
X944145Y845727D01*
X945997Y844960D01*
X948002D01*
X949855Y845727D01*
X951273Y847145D01*
X952040Y848997D01*
Y851003D01*
X951962Y851190D01*
X952340Y852460D01*
X952340D01*
Y869340D01*
X941460D01*
X940532Y870166D01*
Y902771D01*
X941040Y903997D01*
Y904564D01*
X941460Y905660D01*
X942213Y905660D01*
X952340D01*
Y922540D01*
X941460D01*
Y918632D01*
X934100D01*
X934100Y918632D01*
X932366Y918287D01*
X930895Y917305D01*
X930895Y917305D01*
X925802Y912211D01*
X924532Y912737D01*
Y931468D01*
X956712D01*
X957040Y930563D01*
D02*
G37*
G36*
X641724Y933134D02*
X620295Y911705D01*
X619313Y910234D01*
X618968Y908500D01*
Y903040D01*
X616710D01*
Y884960D01*
Y866960D01*
Y848960D01*
Y830960D01*
X625407D01*
X625845Y830873D01*
X659859D01*
X661097Y830360D01*
X663102D01*
X664955Y831127D01*
X666373Y832545D01*
X667140Y834398D01*
Y836403D01*
X666632Y837629D01*
Y852460D01*
X667540D01*
Y869340D01*
X656660D01*
Y852460D01*
X657568D01*
Y839937D01*
X655537D01*
X654831Y840993D01*
X655040Y841497D01*
Y843503D01*
X654273Y845355D01*
X653932Y845695D01*
Y852460D01*
X654840D01*
Y869340D01*
X643960D01*
Y865432D01*
X630290D01*
Y878631D01*
X631059Y879399D01*
X631102Y879408D01*
X632572Y880390D01*
X638205Y886023D01*
X639187Y887493D01*
X639532Y889228D01*
Y907123D01*
X641877Y909468D01*
X643960D01*
Y905660D01*
X654840D01*
Y915765D01*
X655390Y916192D01*
X656660Y915570D01*
Y905660D01*
X667540D01*
Y915765D01*
X668090Y916192D01*
X669360Y915570D01*
Y915370D01*
X674800D01*
X680240D01*
Y916357D01*
X680327Y916795D01*
Y920097D01*
X680790Y920391D01*
X682060Y919692D01*
Y905660D01*
X692940D01*
Y922540D01*
X692032D01*
Y927181D01*
X693302Y927662D01*
X694997Y926960D01*
X695044D01*
X695668Y926200D01*
Y922540D01*
X694760D01*
Y905660D01*
X705640D01*
Y922540D01*
X704732D01*
Y924323D01*
X706690Y926281D01*
X707960Y925755D01*
Y924997D01*
X708468Y923771D01*
Y922540D01*
X707460D01*
Y905660D01*
X718340D01*
Y922540D01*
X717532D01*
Y923771D01*
X718040Y924997D01*
Y925755D01*
X719310Y926281D01*
X721068Y924523D01*
Y922540D01*
X720160D01*
Y905660D01*
X724631D01*
X737468Y892823D01*
Y863319D01*
X736198Y862545D01*
X735003Y863040D01*
X732998D01*
X732310Y862755D01*
X731040Y863460D01*
Y869340D01*
X720160D01*
Y856014D01*
X718890Y855366D01*
X718427Y855702D01*
Y858105D01*
X718391Y858289D01*
X718532Y859000D01*
Y861000D01*
X718340Y861966D01*
Y869340D01*
X707460D01*
Y852460D01*
X709468D01*
Y849877D01*
X705921Y846330D01*
X705569Y846402D01*
X704797Y847855D01*
X705040Y848443D01*
Y850447D01*
X704732Y851191D01*
Y852460D01*
X705640D01*
Y869340D01*
X694760D01*
Y852460D01*
X694760D01*
X695268Y851190D01*
X694960Y850447D01*
Y848443D01*
X695203Y847855D01*
X694431Y846402D01*
X694079Y846330D01*
X692032Y848377D01*
Y852460D01*
X692940D01*
Y869340D01*
X682060D01*
Y852460D01*
X682968D01*
Y846500D01*
X683313Y844766D01*
X684295Y843295D01*
X689795Y837795D01*
X691266Y836813D01*
X693000Y836468D01*
X707000D01*
X708734Y836813D01*
X710205Y837795D01*
X717064Y844654D01*
X718000Y844468D01*
X736768D01*
X738503Y844813D01*
X739973Y845795D01*
X743690Y849512D01*
X744960Y848987D01*
Y848443D01*
X745727Y846590D01*
X747145Y845172D01*
X747940Y844843D01*
X748188Y843597D01*
X726123Y821532D01*
X612319D01*
X611545Y822802D01*
X612040Y823997D01*
Y826003D01*
X611304Y827778D01*
Y830960D01*
X613290D01*
Y848960D01*
Y866960D01*
Y884960D01*
Y903040D01*
X599710D01*
Y886532D01*
X596288D01*
X595960Y887437D01*
X595930Y887802D01*
X597273Y889145D01*
X597929Y890730D01*
X593000D01*
Y893270D01*
X597929D01*
X597273Y894855D01*
X595855Y896273D01*
X594629Y896781D01*
X581870Y909540D01*
X581362Y910766D01*
X579944Y912184D01*
X578841Y912640D01*
X578894Y913993D01*
X641041Y934247D01*
X641724Y933134D01*
D02*
G37*
G36*
X917767Y937945D02*
X916795Y936973D01*
X915813Y935502D01*
X915468Y933768D01*
Y853288D01*
X914563Y852960D01*
X914198Y852930D01*
X912855Y854273D01*
X912374Y854472D01*
X912168Y855511D01*
X912268Y855890D01*
X913187Y857266D01*
X913532Y859000D01*
X913532Y859000D01*
Y938123D01*
X914527Y939118D01*
X917281D01*
X917767Y937945D01*
D02*
G37*
G36*
X858028Y877626D02*
X858227Y877145D01*
X859645Y875727D01*
X860731Y875277D01*
X860745Y875199D01*
X860605Y873955D01*
X859090Y873328D01*
X857672Y871910D01*
X856905Y870058D01*
Y869643D01*
X856003Y869040D01*
X853997D01*
X852145Y868273D01*
X850727Y866855D01*
X849960Y865003D01*
Y862998D01*
X850468Y861771D01*
Y848101D01*
X849198Y847252D01*
X848503Y847540D01*
X846497D01*
X845247Y847022D01*
X843977Y847764D01*
Y852877D01*
X843632Y854611D01*
X843480Y854839D01*
X843690Y855348D01*
Y857353D01*
X842923Y859205D01*
X841505Y860623D01*
X841166Y860763D01*
X840918Y862009D01*
X856783Y877873D01*
X858028Y877626D01*
D02*
G37*
G36*
X793960Y858381D02*
Y857093D01*
X793873Y856655D01*
Y837782D01*
X788465Y832374D01*
X788018Y832285D01*
X787423Y831888D01*
X787145Y831773D01*
X786932Y831560D01*
X786338Y831162D01*
X785940Y830568D01*
X785727Y830355D01*
X785612Y830077D01*
X785215Y829482D01*
X785075Y828781D01*
X784960Y828503D01*
Y828201D01*
X784820Y827500D01*
Y820250D01*
X783550Y819865D01*
X783205Y820383D01*
X783205Y820383D01*
X782508Y821079D01*
X782032Y822229D01*
Y829000D01*
X781687Y830734D01*
X780705Y832205D01*
X780705Y832205D01*
X773532Y839377D01*
Y842000D01*
X773532Y842000D01*
X773187Y843734D01*
X772205Y845205D01*
X772205Y845205D01*
X766532Y850877D01*
Y852710D01*
X773293D01*
X774141Y851440D01*
X773960Y851003D01*
Y848997D01*
X774727Y847145D01*
X776145Y845727D01*
X777998Y844960D01*
X780003D01*
X781855Y845727D01*
X783273Y847145D01*
X784040Y848997D01*
Y851003D01*
X783859Y851440D01*
X784707Y852710D01*
X789040D01*
Y861641D01*
X790213Y862127D01*
X793960Y858381D01*
D02*
G37*
G36*
X643960Y852460D02*
X644868D01*
Y843100D01*
X644960Y842637D01*
Y841497D01*
X645169Y840993D01*
X644463Y839937D01*
X630290D01*
Y848960D01*
Y856368D01*
X643960D01*
Y852460D01*
D02*
G37*
G36*
X1109795Y879795D02*
X1111266Y878813D01*
X1113000Y878468D01*
X1113000Y878468D01*
X1184623D01*
X1196960Y866131D01*
Y856710D01*
X1226631D01*
X1228877Y854463D01*
X1228391Y853290D01*
X1196960D01*
Y839710D01*
X1200293D01*
X1201141Y838440D01*
X1200960Y838002D01*
Y835997D01*
X1201727Y834145D01*
X1203070Y832802D01*
X1203040Y832437D01*
X1202712Y831532D01*
X1160454D01*
X1156109Y835877D01*
Y836673D01*
X1156109Y836673D01*
X1155764Y838407D01*
X1154782Y839878D01*
X1154782Y839878D01*
X1150040Y844619D01*
Y851790D01*
X1138619D01*
X1136373Y854037D01*
X1136859Y855210D01*
X1150040D01*
Y868790D01*
X1138369D01*
X1136955Y870205D01*
X1135484Y871187D01*
X1133750Y871532D01*
X1132229D01*
X1131003Y872040D01*
X1128997D01*
X1127145Y871273D01*
X1125727Y869855D01*
X1124960Y868002D01*
Y867245D01*
X1123690Y866719D01*
X1116205Y874205D01*
X1114734Y875187D01*
X1113000Y875532D01*
X1087000D01*
X1085266Y875187D01*
X1083795Y874205D01*
X1083795Y874205D01*
X1081705Y872115D01*
X1080532Y872601D01*
Y883626D01*
X1080959Y884266D01*
X1081304Y886000D01*
Y889960D01*
X1083290D01*
Y904641D01*
X1084463Y905127D01*
X1109795Y879795D01*
D02*
G37*
G36*
X1131960Y845631D02*
Y838210D01*
X1143631D01*
X1147045Y834796D01*
Y834000D01*
X1147390Y832266D01*
X1148372Y830795D01*
X1155366Y823802D01*
X1155366Y823773D01*
X1154977Y822532D01*
X1111327D01*
X1111079Y823778D01*
X1111677Y824025D01*
X1115368Y826492D01*
X1118508Y829632D01*
X1120975Y833323D01*
X1122674Y837425D01*
X1123540Y841780D01*
Y846220D01*
X1122674Y850575D01*
X1120975Y854677D01*
X1120686Y855108D01*
X1121673Y855918D01*
X1131960Y845631D01*
D02*
G37*
G36*
X1330000Y850000D02*
Y750000D01*
X1280000D01*
X1210000Y810000D01*
X935000D01*
Y725000D01*
X735000D01*
Y810000D01*
X460000D01*
X390000Y750000D01*
X340000D01*
Y850000D01*
X609800Y935200D01*
X636070Y943496D01*
X636458Y942287D01*
X415596Y870309D01*
X415440Y870222D01*
X415266Y870187D01*
X414674Y869792D01*
X414054Y869444D01*
X413943Y869304D01*
X413795Y869205D01*
X388295Y843705D01*
X387313Y842234D01*
X386968Y840500D01*
Y799040D01*
X384710D01*
Y780960D01*
X386968D01*
Y772377D01*
X376123Y761532D01*
X354229D01*
X353003Y762040D01*
X350998D01*
X349145Y761273D01*
X347727Y759855D01*
X346960Y758002D01*
Y755997D01*
X347727Y754145D01*
X349145Y752727D01*
X350998Y751960D01*
X353003D01*
X354229Y752468D01*
X378000D01*
X379734Y752813D01*
X381205Y753795D01*
X394705Y767295D01*
X395687Y768766D01*
X396032Y770500D01*
X396032Y770500D01*
Y780960D01*
X398290D01*
Y799040D01*
X396032D01*
Y838623D01*
X419437Y862027D01*
X422323Y862968D01*
X422908Y861893D01*
X421372Y860715D01*
X421172Y860582D01*
X405295Y844705D01*
X404313Y843234D01*
X403968Y841500D01*
Y799040D01*
X401710D01*
Y780960D01*
X415290D01*
Y799040D01*
X413032D01*
Y839623D01*
X427406Y853997D01*
X427654Y854100D01*
Y854100D01*
X427659Y854121D01*
X521862Y886474D01*
X522960Y885508D01*
Y884053D01*
X523253Y883346D01*
X522547Y882290D01*
X519960D01*
Y868710D01*
X538040D01*
Y871210D01*
X556040D01*
Y873468D01*
X557000D01*
X558734Y873813D01*
X560205Y874795D01*
X560629Y875219D01*
X561855Y875727D01*
X563273Y877145D01*
X564040Y878997D01*
Y881003D01*
X563273Y882855D01*
X561855Y884273D01*
X560003Y885040D01*
X557998D01*
X557310Y884755D01*
X556040Y884790D01*
X556040Y884790D01*
X556040Y884790D01*
X537960D01*
Y882290D01*
X533532D01*
Y885000D01*
X533532Y885000D01*
X533294Y886198D01*
X534108Y887468D01*
X541000D01*
X542734Y887813D01*
X543329Y888210D01*
X556040D01*
Y890468D01*
X567420D01*
X579093Y878795D01*
X579093Y878795D01*
X580563Y877813D01*
X582298Y877468D01*
X598648D01*
X598700Y877390D01*
X599710Y876716D01*
Y866960D01*
Y848960D01*
Y830960D01*
X602240D01*
Y826679D01*
X601960Y826003D01*
Y823997D01*
X602455Y822802D01*
X601681Y821532D01*
X578976D01*
X578591Y822802D01*
X581868Y824992D01*
X585008Y828132D01*
X587475Y831823D01*
X589174Y835925D01*
X590040Y840280D01*
Y844720D01*
X589174Y849075D01*
X587475Y853177D01*
X585008Y856868D01*
X581868Y860008D01*
X578177Y862475D01*
X574075Y864174D01*
X569720Y865040D01*
X565280D01*
X560925Y864174D01*
X556823Y862475D01*
X553132Y860008D01*
X549992Y856868D01*
X547525Y853177D01*
X545826Y849075D01*
X544960Y844720D01*
Y840280D01*
X545826Y835925D01*
X547525Y831823D01*
X549992Y828132D01*
X553132Y824992D01*
X556409Y822802D01*
X556024Y821532D01*
X543877D01*
X533532Y831877D01*
Y851710D01*
X538040D01*
Y865290D01*
X519960D01*
Y851710D01*
X524468D01*
Y830000D01*
X524813Y828266D01*
X525795Y826795D01*
X538795Y813795D01*
X540266Y812813D01*
X542000Y812468D01*
X728000D01*
X729734Y812813D01*
X731205Y813795D01*
X760610Y843200D01*
X760610Y843200D01*
X761320Y843270D01*
X764468Y840123D01*
Y837500D01*
X764813Y835766D01*
X765795Y834295D01*
X772968Y827123D01*
Y822229D01*
X772460Y821003D01*
Y818997D01*
X773227Y817145D01*
X774645Y815727D01*
X775322Y815447D01*
X775468Y815301D01*
Y805040D01*
X774460D01*
Y777960D01*
X888730D01*
Y791500D01*
X890000D01*
Y792770D01*
X895540D01*
Y805040D01*
X894467D01*
X894215Y806310D01*
X895355Y806782D01*
X896773Y808200D01*
X897429Y809785D01*
X887571D01*
X888227Y808200D01*
X889645Y806782D01*
X890785Y806310D01*
X890533Y805040D01*
X884532D01*
Y817500D01*
X884187Y819234D01*
X883205Y820705D01*
X875182Y828727D01*
Y831749D01*
X876355Y832235D01*
X882719Y825871D01*
X883227Y824645D01*
X884645Y823227D01*
X886497Y822460D01*
X888503D01*
X890355Y823227D01*
X891773Y824645D01*
X892540Y826497D01*
Y828503D01*
X891773Y830355D01*
X890355Y831773D01*
X889129Y832281D01*
X881532Y839877D01*
Y844710D01*
X904040D01*
Y847900D01*
X905310Y848153D01*
X905727Y847145D01*
X907145Y845727D01*
X908730Y845071D01*
Y850000D01*
X911270D01*
Y845071D01*
X912855Y845727D01*
X914198Y847070D01*
X914563Y847040D01*
X915468Y846712D01*
Y840000D01*
X915813Y838266D01*
X916795Y836795D01*
X938795Y814795D01*
X940266Y813813D01*
X942000Y813468D01*
X1245123D01*
X1264468Y794123D01*
Y783000D01*
X1264813Y781266D01*
X1265795Y779795D01*
X1267266Y778813D01*
X1269000Y778468D01*
X1270960D01*
Y774710D01*
X1275468D01*
Y773229D01*
X1274960Y772002D01*
Y769997D01*
X1275727Y768145D01*
X1277145Y766727D01*
X1278997Y765960D01*
X1281003D01*
X1282855Y766727D01*
X1284273Y768145D01*
X1285040Y769997D01*
Y772002D01*
X1284532Y773229D01*
Y774710D01*
X1289040D01*
Y788290D01*
X1273532D01*
Y791710D01*
X1289040D01*
Y805290D01*
X1277369D01*
X1252455Y830205D01*
X1250984Y831187D01*
X1249250Y831532D01*
X1209288D01*
X1208960Y832437D01*
X1208930Y832802D01*
X1210273Y834145D01*
X1211040Y835997D01*
Y838002D01*
X1210859Y838440D01*
X1211707Y839710D01*
X1233040D01*
Y848641D01*
X1234213Y849127D01*
X1238545Y844795D01*
X1240016Y843813D01*
X1241750Y843468D01*
X1293123D01*
X1311219Y825371D01*
X1311727Y824145D01*
X1313145Y822727D01*
X1314998Y821960D01*
X1317003D01*
X1318855Y822727D01*
X1320273Y824145D01*
X1321040Y825997D01*
Y828002D01*
X1320273Y829855D01*
X1318855Y831273D01*
X1317629Y831781D01*
X1298205Y851205D01*
X1296734Y852187D01*
X1295000Y852532D01*
X1243627D01*
X1233040Y863119D01*
Y870290D01*
X1205619D01*
X1189705Y886205D01*
X1188234Y887187D01*
X1186500Y887532D01*
X1114877D01*
X1074205Y928205D01*
X1072734Y929187D01*
X1071000Y929532D01*
X1066356D01*
X1066352Y929535D01*
X1064618Y929880D01*
X1057364D01*
X1055798Y930528D01*
X1053793D01*
X1051941Y929761D01*
X1050523Y928343D01*
X1049756Y926491D01*
Y924486D01*
X1050523Y922633D01*
X1051941Y921216D01*
X1053793Y920448D01*
X1055798D01*
X1056685Y920816D01*
X1063227D01*
X1063231Y920813D01*
X1064966Y920468D01*
X1069123D01*
X1080377Y909213D01*
X1079891Y908040D01*
X1069710D01*
Y889960D01*
X1071036D01*
X1071389Y889397D01*
X1071659Y888690D01*
X1070960Y887002D01*
Y884997D01*
X1071468Y883771D01*
Y871254D01*
X1068821Y868608D01*
X1068145Y868328D01*
X1067560Y867743D01*
X1066290Y868269D01*
Y871040D01*
X1066790Y871960D01*
X1066790D01*
Y890040D01*
X1066290D01*
Y908040D01*
X1064304D01*
Y909222D01*
X1065040Y910997D01*
Y913002D01*
X1064273Y914855D01*
X1062855Y916273D01*
X1061003Y917040D01*
X1058997D01*
X1057145Y916273D01*
X1055727Y914855D01*
X1054960Y913002D01*
Y910997D01*
X1055240Y910321D01*
Y908040D01*
X1052710D01*
Y889960D01*
X1053210D01*
Y871960D01*
X1052710Y871040D01*
X1052710D01*
Y852960D01*
X1053210D01*
Y834960D01*
X1066790D01*
Y844381D01*
X1075263Y852854D01*
X1075611Y852923D01*
X1077081Y853905D01*
X1081150Y857974D01*
X1082132Y859444D01*
X1082201Y859792D01*
X1088877Y866468D01*
X1093024D01*
X1093277Y865198D01*
X1090323Y863975D01*
X1086632Y861508D01*
X1083492Y858368D01*
X1081025Y854677D01*
X1079326Y850575D01*
X1078460Y846220D01*
Y841780D01*
X1079326Y837425D01*
X1081025Y833323D01*
X1083492Y829632D01*
X1086632Y826492D01*
X1090323Y824025D01*
X1090921Y823778D01*
X1090674Y822532D01*
X1021600D01*
X1021212Y823773D01*
X1021211Y823802D01*
X1027924Y830515D01*
X1028002D01*
X1029855Y831282D01*
X1031273Y832700D01*
X1032040Y834553D01*
Y836557D01*
X1031902Y836890D01*
X1032805Y838029D01*
X1034234Y838313D01*
X1034940Y838784D01*
X1036210Y838105D01*
Y834960D01*
X1049790D01*
Y853040D01*
X1049290D01*
Y871040D01*
X1049790Y871960D01*
X1049790D01*
Y890040D01*
X1047532D01*
Y904000D01*
X1047532Y904000D01*
X1047187Y905734D01*
X1046205Y907205D01*
X1036205Y917205D01*
X1034734Y918187D01*
X1033000Y918532D01*
X1028540D01*
Y922540D01*
X1027632D01*
Y926900D01*
X1027287Y928634D01*
X1026305Y930105D01*
X1005705Y950705D01*
X1004648Y951411D01*
X1005202Y952568D01*
X1330000Y850000D01*
D02*
G37*
G36*
X807127Y851037D02*
X806795Y850705D01*
X805813Y849234D01*
X805468Y847500D01*
Y805040D01*
X795180D01*
Y826270D01*
X801610Y832700D01*
X801610Y832700D01*
X802592Y834171D01*
X802937Y835905D01*
Y852210D01*
X806641D01*
X807127Y851037D01*
D02*
G37*
G36*
X935000Y655000D02*
X1305000D01*
X1330000Y635000D01*
Y415000D01*
X1320000Y405000D01*
X1290000D01*
X1275000Y420000D01*
X1275000Y455000D01*
X1270000Y460000D01*
X1145000D01*
X1140000Y455000D01*
Y425000D01*
X1100000Y385000D01*
X565000D01*
X530000Y420000D01*
Y455000D01*
X525000Y460000D01*
X400000D01*
X395000Y455000D01*
Y420000D01*
X380000Y405000D01*
X350000D01*
X340000Y415000D01*
Y635000D01*
X360000Y655000D01*
X735000Y655000D01*
Y690000D01*
X935000D01*
Y655000D01*
D02*
G37*
%LPC*%
G36*
X878730Y931730D02*
X870710D01*
Y931593D01*
X870623Y931155D01*
X870710Y930717D01*
Y924960D01*
X878730D01*
Y931730D01*
D02*
G37*
G36*
X864190Y928440D02*
X856670D01*
Y920920D01*
X864190D01*
Y928440D01*
D02*
G37*
G36*
X854130D02*
X846610D01*
Y920920D01*
X854130D01*
Y928440D01*
D02*
G37*
G36*
X874270Y922929D02*
Y919270D01*
X877929D01*
X877273Y920855D01*
X875855Y922273D01*
X874270Y922929D01*
D02*
G37*
G36*
X871730D02*
X870145Y922273D01*
X868727Y920855D01*
X868071Y919270D01*
X871730D01*
Y922929D01*
D02*
G37*
G36*
X877929Y916730D02*
X874270D01*
Y913071D01*
X875855Y913727D01*
X877273Y915145D01*
X877929Y916730D01*
D02*
G37*
G36*
X871730D02*
X868071D01*
X868727Y915145D01*
X870145Y913727D01*
X871730Y913071D01*
Y916730D01*
D02*
G37*
G36*
X864190Y918380D02*
X856670D01*
Y910860D01*
X864190D01*
Y918380D01*
D02*
G37*
G36*
X854130D02*
X846610D01*
Y910860D01*
X854130D01*
Y918380D01*
D02*
G37*
G36*
X1003140Y869340D02*
X998970D01*
Y862170D01*
X1003140D01*
Y869340D01*
D02*
G37*
G36*
X996430D02*
X992260D01*
Y862170D01*
X996430D01*
Y869340D01*
D02*
G37*
G36*
X1003140Y859630D02*
X992260D01*
Y852460D01*
X992260D01*
X992862Y851190D01*
X992771Y850970D01*
X1002629D01*
X1002538Y851190D01*
X1003140Y852460D01*
X1003140D01*
Y859630D01*
D02*
G37*
G36*
X977740Y869340D02*
X966860D01*
Y852460D01*
X966860D01*
X967280Y851831D01*
X966960Y851058D01*
Y849053D01*
X967727Y847200D01*
X969145Y845782D01*
X970997Y845015D01*
X973002D01*
X974855Y845782D01*
X976273Y847200D01*
X977040Y849053D01*
Y851058D01*
X976985Y851190D01*
X977740Y852460D01*
X977740D01*
Y869340D01*
D02*
G37*
G36*
X990440D02*
X979560D01*
Y852460D01*
X979560D01*
X980038Y851190D01*
X979960Y851003D01*
Y848997D01*
X980727Y847145D01*
X982145Y845727D01*
X983997Y844960D01*
X986003D01*
X987855Y845727D01*
X989273Y847145D01*
X990040Y848997D01*
Y851003D01*
X989962Y851190D01*
X990440Y852460D01*
X990440D01*
Y869340D01*
D02*
G37*
G36*
X1002629Y848430D02*
X998970D01*
Y844771D01*
X1000555Y845427D01*
X1001973Y846845D01*
X1002629Y848430D01*
D02*
G37*
G36*
X996430D02*
X992771D01*
X993427Y846845D01*
X994845Y845427D01*
X996430Y844771D01*
Y848430D01*
D02*
G37*
G36*
X680240Y912830D02*
X676070D01*
Y905660D01*
X680240D01*
Y912830D01*
D02*
G37*
G36*
X673530D02*
X669360D01*
Y905660D01*
X673530D01*
Y912830D01*
D02*
G37*
G36*
X680240Y869340D02*
X669360D01*
Y852460D01*
X669654D01*
X669960Y852002D01*
Y849997D01*
X670727Y848145D01*
X672145Y846727D01*
X673997Y845960D01*
X676003D01*
X677855Y846727D01*
X679273Y848145D01*
X680040Y849997D01*
Y852002D01*
X680000Y852100D01*
X680240Y852460D01*
X680240D01*
Y869340D01*
D02*
G37*
G36*
X1255730Y839929D02*
X1254145Y839273D01*
X1252727Y837855D01*
X1252071Y836270D01*
X1255730D01*
Y839929D01*
D02*
G37*
G36*
X1294270Y833929D02*
Y830270D01*
X1297929D01*
X1297273Y831855D01*
X1295855Y833273D01*
X1294270Y833929D01*
D02*
G37*
G36*
X1297929Y827730D02*
X1294270D01*
Y824071D01*
X1295855Y824727D01*
X1297273Y826145D01*
X1297929Y827730D01*
D02*
G37*
G36*
X1258270Y839929D02*
Y835000D01*
X1257000D01*
Y833730D01*
X1252071D01*
X1252727Y832145D01*
X1254145Y830727D01*
X1255371Y830219D01*
X1259795Y825795D01*
X1261266Y824813D01*
X1263000Y824468D01*
X1263000Y824468D01*
X1290771D01*
X1291730Y824071D01*
Y829000D01*
Y833929D01*
X1290771Y833532D01*
X1264877D01*
X1261781Y836629D01*
X1261273Y837855D01*
X1259855Y839273D01*
X1258270Y839929D01*
D02*
G37*
G36*
X893770Y815984D02*
Y812325D01*
X897429D01*
X896773Y813910D01*
X895355Y815328D01*
X893770Y815984D01*
D02*
G37*
G36*
X891230D02*
X889645Y815328D01*
X888227Y813910D01*
X887571Y812325D01*
X891230D01*
Y815984D01*
D02*
G37*
G36*
X895540Y790230D02*
X891270D01*
Y777960D01*
X895540D01*
Y790230D01*
D02*
G37*
G36*
X927540Y783040D02*
X904460D01*
Y751960D01*
X927540D01*
Y783040D01*
D02*
G37*
G36*
X765540D02*
X742460D01*
Y751960D01*
X765540D01*
Y783040D01*
D02*
G37*
G36*
X450000Y641613D02*
X447052Y641322D01*
X444217Y640462D01*
X441604Y639066D01*
X439314Y637186D01*
X437434Y634896D01*
X436038Y632283D01*
X435424Y630259D01*
X434096D01*
X433482Y632283D01*
X432086Y634896D01*
X430206Y637186D01*
X427916Y639066D01*
X425303Y640462D01*
X422468Y641322D01*
X419520Y641613D01*
X416572Y641322D01*
X413737Y640462D01*
X411124Y639066D01*
X408834Y637186D01*
X406954Y634896D01*
X405558Y632283D01*
X404698Y629448D01*
X404407Y626500D01*
Y611500D01*
X404698Y608552D01*
X405558Y605717D01*
X406954Y603104D01*
X408834Y600814D01*
X411124Y598934D01*
X413737Y597538D01*
X416572Y596678D01*
X417599Y596576D01*
X418267Y595576D01*
X466422Y547422D01*
X468522Y546018D01*
X471000Y545526D01*
X594276D01*
X594955Y544256D01*
X594268Y543228D01*
X593776Y540750D01*
X594268Y538272D01*
X595672Y536172D01*
X597772Y534768D01*
X600250Y534276D01*
X604137D01*
X604522Y534018D01*
X607000Y533526D01*
X617482D01*
X618161Y532256D01*
X617712Y531584D01*
X617600Y531020D01*
X641895D01*
X641782Y531584D01*
X640836Y533000D01*
X641782Y534416D01*
X642147Y536250D01*
X641782Y538084D01*
X640836Y539500D01*
X641782Y540916D01*
X642147Y542750D01*
X641782Y544584D01*
X640836Y546000D01*
X641782Y547416D01*
X642147Y549250D01*
X641782Y551084D01*
X640836Y552500D01*
X641782Y553916D01*
X642147Y555750D01*
X641782Y557584D01*
X640836Y559000D01*
X641782Y560416D01*
X641895Y560980D01*
X617600D01*
X617712Y560416D01*
X618161Y559744D01*
X617482Y558474D01*
X473682D01*
X430718Y601438D01*
X432086Y603104D01*
X433482Y605717D01*
X434096Y607741D01*
X435424D01*
X436038Y605717D01*
X437434Y603104D01*
X439314Y600814D01*
X441604Y598934D01*
X444217Y597538D01*
X447052Y596678D01*
X450000Y596387D01*
X450118Y596399D01*
X451473Y594371D01*
X472675Y573169D01*
X474775Y571766D01*
X477253Y571273D01*
X595386D01*
X596091Y570217D01*
X596071Y570167D01*
X605929D01*
X605909Y570217D01*
X606614Y571273D01*
X616761D01*
X617585Y570020D01*
X641895D01*
X641782Y570584D01*
X640836Y572000D01*
X641782Y573416D01*
X642147Y575250D01*
X641841Y576789D01*
X642055Y577049D01*
X642055D01*
Y586451D01*
X617439D01*
Y584222D01*
X479935D01*
X462306Y601850D01*
X462156Y602604D01*
X462566Y603104D01*
X463962Y605717D01*
X464822Y608552D01*
X465113Y611500D01*
Y626500D01*
X464822Y629448D01*
X463962Y632283D01*
X462566Y634896D01*
X460686Y637186D01*
X458396Y639066D01*
X455783Y640462D01*
X452948Y641322D01*
X450000Y641613D01*
D02*
G37*
G36*
X927540Y660540D02*
X904460D01*
Y629460D01*
X927540D01*
Y660540D01*
D02*
G37*
G36*
X765540D02*
X742460D01*
Y629460D01*
X765540D01*
Y660540D01*
D02*
G37*
G36*
X1246480Y638613D02*
X1243532Y638322D01*
X1240697Y637462D01*
X1238084Y636066D01*
X1235794Y634186D01*
X1233914Y631896D01*
X1232518Y629283D01*
X1231904Y627259D01*
X1230576D01*
X1229962Y629283D01*
X1228566Y631896D01*
X1226686Y634186D01*
X1224396Y636066D01*
X1221783Y637462D01*
X1218948Y638322D01*
X1216000Y638613D01*
X1213052Y638322D01*
X1210217Y637462D01*
X1207604Y636066D01*
X1205314Y634186D01*
X1203434Y631896D01*
X1202038Y629283D01*
X1201178Y626448D01*
X1200887Y623500D01*
Y608500D01*
X1201178Y605552D01*
X1202038Y602717D01*
X1203434Y600104D01*
X1205314Y597814D01*
X1207604Y595934D01*
X1210217Y594538D01*
X1213052Y593678D01*
X1216000Y593387D01*
X1218948Y593678D01*
X1221783Y594538D01*
X1224396Y595934D01*
X1226686Y597814D01*
X1228566Y600104D01*
X1229962Y602717D01*
X1230576Y604741D01*
X1231904D01*
X1232518Y602717D01*
X1233914Y600104D01*
X1235794Y597814D01*
X1238084Y595934D01*
X1240697Y594538D01*
X1243532Y593678D01*
X1246480Y593387D01*
X1249428Y593678D01*
X1252263Y594538D01*
X1254876Y595934D01*
X1257166Y597814D01*
X1259046Y600104D01*
X1260442Y602717D01*
X1261302Y605552D01*
X1261593Y608500D01*
Y623500D01*
X1261302Y626448D01*
X1260442Y629283D01*
X1259046Y631896D01*
X1257166Y634186D01*
X1254876Y636066D01*
X1252263Y637462D01*
X1249428Y638322D01*
X1246480Y638613D01*
D02*
G37*
G36*
X895540Y634540D02*
X891270D01*
Y622270D01*
X895540D01*
Y634540D01*
D02*
G37*
G36*
X524790Y628390D02*
X515670D01*
Y619270D01*
X524790D01*
Y628390D01*
D02*
G37*
G36*
X513130D02*
X504010D01*
Y619270D01*
X513130D01*
Y628390D01*
D02*
G37*
G36*
X724115Y636715D02*
X702685D01*
Y615285D01*
X724115D01*
Y636715D01*
D02*
G37*
G36*
X689411D02*
X686589D01*
X683864Y635985D01*
X681421Y634574D01*
X679426Y632579D01*
X678015Y630136D01*
X677285Y627411D01*
Y624589D01*
X678015Y621864D01*
X679426Y619421D01*
X681421Y617426D01*
X683864Y616015D01*
X686589Y615285D01*
X689411D01*
X692136Y616015D01*
X694579Y617426D01*
X696574Y619421D01*
X697985Y621864D01*
X698715Y624589D01*
Y627411D01*
X697985Y630136D01*
X696574Y632579D01*
X694579Y634574D01*
X692136Y635985D01*
X689411Y636715D01*
D02*
G37*
G36*
X664011D02*
X661189D01*
X658464Y635985D01*
X656021Y634574D01*
X654026Y632579D01*
X652615Y630136D01*
X651885Y627411D01*
Y624589D01*
X652615Y621864D01*
X654026Y619421D01*
X656021Y617426D01*
X658464Y616015D01*
X661189Y615285D01*
X664011D01*
X666736Y616015D01*
X669179Y617426D01*
X671174Y619421D01*
X672585Y621864D01*
X673315Y624589D01*
Y627411D01*
X672585Y630136D01*
X671174Y632579D01*
X669179Y634574D01*
X666736Y635985D01*
X664011Y636715D01*
D02*
G37*
G36*
X524790Y616730D02*
X515670D01*
Y607610D01*
X524790D01*
Y616730D01*
D02*
G37*
G36*
X513130D02*
X504010D01*
Y607610D01*
X513130D01*
Y616730D01*
D02*
G37*
G36*
X490368Y628390D02*
X487632D01*
X484990Y627682D01*
X482620Y626314D01*
X480686Y624380D01*
X479318Y622010D01*
X478610Y619368D01*
Y616632D01*
X479318Y613990D01*
X480686Y611620D01*
X482620Y609686D01*
X484990Y608318D01*
X487632Y607610D01*
X490368D01*
X493010Y608318D01*
X495380Y609686D01*
X497314Y611620D01*
X498682Y613990D01*
X499390Y616632D01*
Y619368D01*
X498682Y622010D01*
X497314Y624380D01*
X495380Y626314D01*
X493010Y627682D01*
X490368Y628390D01*
D02*
G37*
G36*
X895540Y619730D02*
X891270D01*
Y607460D01*
X895540D01*
Y619730D01*
D02*
G37*
G36*
X1019040Y612790D02*
X1011770D01*
Y605520D01*
X1019040D01*
Y612790D01*
D02*
G37*
G36*
X1009230D02*
X1001960D01*
Y605520D01*
X1009230D01*
Y612790D01*
D02*
G37*
G36*
X977290Y612540D02*
X970020D01*
Y605270D01*
X977290D01*
Y612540D01*
D02*
G37*
G36*
X967480D02*
X960210D01*
Y605270D01*
X967480D01*
Y612540D01*
D02*
G37*
G36*
X1103220Y643540D02*
X1098780D01*
X1094425Y642674D01*
X1090323Y640975D01*
X1086632Y638508D01*
X1083492Y635368D01*
X1081025Y631677D01*
X1079326Y627575D01*
X1078460Y623220D01*
Y618780D01*
X1079326Y614425D01*
X1081025Y610323D01*
X1083492Y606632D01*
X1086632Y603492D01*
X1090323Y601025D01*
X1094425Y599326D01*
X1098780Y598460D01*
X1103220D01*
X1107575Y599326D01*
X1111677Y601025D01*
X1115368Y603492D01*
X1118508Y606632D01*
X1120975Y610323D01*
X1122674Y614425D01*
X1123540Y618780D01*
Y623220D01*
X1122674Y627575D01*
X1120975Y631677D01*
X1118508Y635368D01*
X1115368Y638508D01*
X1111677Y640975D01*
X1107575Y642674D01*
X1103220Y643540D01*
D02*
G37*
G36*
X1019040Y602980D02*
X1011770D01*
Y595710D01*
X1019040D01*
Y602980D01*
D02*
G37*
G36*
X1009230D02*
X1001960D01*
Y595710D01*
X1009230D01*
Y602980D01*
D02*
G37*
G36*
X977290Y602730D02*
X970020D01*
Y595460D01*
X977290D01*
Y602730D01*
D02*
G37*
G36*
X967480D02*
X960210D01*
Y595460D01*
X967480D01*
Y602730D01*
D02*
G37*
G36*
X1307220Y637540D02*
X1302780D01*
X1298425Y636674D01*
X1294323Y634975D01*
X1290632Y632508D01*
X1287492Y629368D01*
X1285025Y625677D01*
X1283326Y621575D01*
X1282460Y617220D01*
Y612780D01*
X1283326Y608425D01*
X1285025Y604323D01*
X1287492Y600632D01*
X1290632Y597492D01*
X1294323Y595025D01*
X1298425Y593326D01*
X1302780Y592460D01*
X1307220D01*
X1311575Y593326D01*
X1315677Y595025D01*
X1319368Y597492D01*
X1322508Y600632D01*
X1324975Y604323D01*
X1326674Y608425D01*
X1327540Y612780D01*
Y617220D01*
X1326674Y621575D01*
X1324975Y625677D01*
X1322508Y629368D01*
X1319368Y632508D01*
X1315677Y634975D01*
X1311575Y636674D01*
X1307220Y637540D01*
D02*
G37*
G36*
X367220D02*
X362780D01*
X358425Y636674D01*
X354323Y634975D01*
X350632Y632508D01*
X347492Y629368D01*
X345025Y625677D01*
X343326Y621575D01*
X342460Y617220D01*
Y612780D01*
X343326Y608425D01*
X345025Y604323D01*
X347492Y600632D01*
X350632Y597492D01*
X354323Y595025D01*
X358425Y593326D01*
X362780Y592460D01*
X367220D01*
X371575Y593326D01*
X375677Y595025D01*
X379368Y597492D01*
X382508Y600632D01*
X384975Y604323D01*
X386674Y608425D01*
X387540Y612780D01*
Y617220D01*
X386674Y621575D01*
X384975Y625677D01*
X382508Y629368D01*
X379368Y632508D01*
X375677Y634975D01*
X371575Y636674D01*
X367220Y637540D01*
D02*
G37*
G36*
X888730Y634540D02*
X774460D01*
Y607460D01*
X775468D01*
Y602229D01*
X774960Y601003D01*
Y598997D01*
X775727Y597145D01*
X777145Y595727D01*
X778997Y594960D01*
X781003D01*
X782855Y595727D01*
X783690Y596562D01*
X784960Y596036D01*
Y594997D01*
X785727Y593145D01*
X787145Y591727D01*
X788997Y590960D01*
X791003D01*
X792855Y591727D01*
X794273Y593145D01*
X795040Y594997D01*
Y597002D01*
X794273Y598855D01*
X794144Y598984D01*
Y607460D01*
X805468D01*
Y599229D01*
X804960Y598003D01*
Y595998D01*
X805727Y594145D01*
X807145Y592727D01*
X808997Y591960D01*
X811003D01*
X812855Y592727D01*
X814273Y594145D01*
X814416Y594492D01*
X815203Y594584D01*
X815817Y594555D01*
X817145Y593227D01*
X818997Y592460D01*
X821003D01*
X822855Y593227D01*
X824273Y594645D01*
X824365Y594868D01*
X825635D01*
X825727Y594645D01*
X827145Y593227D01*
X828997Y592460D01*
X831003D01*
X832855Y593227D01*
X834273Y594645D01*
X834365Y594868D01*
X835635D01*
X835727Y594645D01*
X837145Y593227D01*
X838997Y592460D01*
X841003D01*
X842855Y593227D01*
X844273Y594645D01*
X844365Y594868D01*
X845635D01*
X845727Y594645D01*
X847145Y593227D01*
X848997Y592460D01*
X851003D01*
X852855Y593227D01*
X854273Y594645D01*
X854365Y594868D01*
X855635D01*
X855727Y594645D01*
X857145Y593227D01*
X858997Y592460D01*
X861003D01*
X862855Y593227D01*
X864273Y594645D01*
X864365Y594868D01*
X865635D01*
X865727Y594645D01*
X867145Y593227D01*
X868997Y592460D01*
X871003D01*
X872855Y593227D01*
X874273Y594645D01*
X874365Y594868D01*
X875635D01*
X875727Y594645D01*
X877145Y593227D01*
X878997Y592460D01*
X881003D01*
X882855Y593227D01*
X884273Y594645D01*
X885040Y596497D01*
Y598503D01*
X884532Y599729D01*
Y607460D01*
X888730D01*
Y621000D01*
Y634540D01*
D02*
G37*
G36*
X569720Y637540D02*
X565280D01*
X560925Y636674D01*
X556823Y634975D01*
X553132Y632508D01*
X549992Y629368D01*
X547525Y625677D01*
X545826Y621575D01*
X544960Y617220D01*
Y612780D01*
X545826Y608425D01*
X547525Y604323D01*
X549992Y600632D01*
X553132Y597492D01*
X556823Y595025D01*
X560925Y593326D01*
X565280Y592460D01*
X569720D01*
X574075Y593326D01*
X578177Y595025D01*
X581868Y597492D01*
X585008Y600632D01*
X587475Y604323D01*
X589174Y608425D01*
X590040Y612780D01*
Y617220D01*
X589174Y621575D01*
X587475Y625677D01*
X585008Y629368D01*
X581868Y632508D01*
X578177Y634975D01*
X574075Y636674D01*
X569720Y637540D01*
D02*
G37*
G36*
X1049003Y602040D02*
X1046998D01*
X1045145Y601273D01*
X1043727Y599855D01*
X1042960Y598003D01*
Y595998D01*
X1043468Y594771D01*
Y593290D01*
X1033960D01*
Y579710D01*
X1052040D01*
Y588407D01*
X1052127Y588845D01*
Y589676D01*
X1052187Y589766D01*
X1052532Y591500D01*
X1052532Y591500D01*
Y594771D01*
X1053040Y595998D01*
Y598003D01*
X1052273Y599855D01*
X1050855Y601273D01*
X1049003Y602040D01*
D02*
G37*
G36*
X998290Y612540D02*
X981210D01*
Y595460D01*
X984968D01*
Y594040D01*
X982210D01*
Y575960D01*
X995790D01*
Y594040D01*
X994032D01*
Y595460D01*
X998290D01*
Y612540D01*
D02*
G37*
G36*
X1040040Y612790D02*
X1022960D01*
Y598032D01*
X1022658Y597579D01*
X1022313Y595845D01*
Y594040D01*
X1018210D01*
Y575960D01*
X1018210Y575960D01*
X1017752Y574880D01*
X1016727Y573855D01*
X1015960Y572002D01*
Y570245D01*
X1015260Y569774D01*
X1014787Y569623D01*
X1012032Y572377D01*
Y575960D01*
X1014790D01*
Y594040D01*
X1001210D01*
Y575960D01*
X1002968D01*
Y570500D01*
X1003313Y568766D01*
X1004295Y567295D01*
X1007468Y564123D01*
Y559471D01*
X1006295Y558985D01*
X1005766Y559514D01*
X1003624Y560750D01*
X1001236Y561390D01*
X999019D01*
X993910Y566500D01*
X992439Y567482D01*
X990705Y567827D01*
X963600D01*
X963348Y569097D01*
X964152Y569430D01*
X965570Y570848D01*
X966337Y572700D01*
Y572928D01*
X968579Y575170D01*
X970155D01*
X971889Y575515D01*
X972556Y575960D01*
X978790D01*
Y594040D01*
X965210D01*
Y583937D01*
X964967Y583889D01*
X963497Y582906D01*
X959330Y578740D01*
X958964Y578192D01*
X958442Y577976D01*
X957024Y576558D01*
X956914Y576290D01*
X949270D01*
Y569500D01*
X946730D01*
Y576290D01*
X938960D01*
X938040Y577135D01*
Y578865D01*
X938960Y579710D01*
X939070Y579710D01*
X957040D01*
Y593290D01*
X938960D01*
Y589532D01*
X814000D01*
X813810Y589494D01*
X813619Y589532D01*
X757290D01*
Y591040D01*
X743710D01*
Y572960D01*
X749880D01*
X750810Y572140D01*
Y561532D01*
X744290D01*
Y565040D01*
X725710D01*
X725710Y565040D01*
Y565040D01*
X724482Y565142D01*
X724273Y565648D01*
X723358Y566563D01*
X724273Y567478D01*
X725040Y569330D01*
Y571335D01*
X724273Y573188D01*
X723294Y574166D01*
X724273Y575145D01*
X725040Y576997D01*
Y579002D01*
X725016Y579061D01*
X725786Y580123D01*
X726710Y579985D01*
Y572960D01*
X740290D01*
Y591040D01*
X726710D01*
Y589477D01*
X723191D01*
X722855Y589813D01*
X721003Y590580D01*
X718997D01*
X717145Y589813D01*
X716809Y589477D01*
X710653D01*
X710653Y589477D01*
X708919Y589132D01*
X707448Y588150D01*
X705841Y586543D01*
X692646D01*
X690811Y586178D01*
X689257Y585139D01*
X688218Y583584D01*
X687853Y581750D01*
X688218Y579916D01*
X689164Y578500D01*
X688218Y577084D01*
X687853Y575250D01*
X688218Y573416D01*
X689164Y572000D01*
X688218Y570584D01*
X687853Y568750D01*
X688218Y566916D01*
X689164Y565500D01*
X688218Y564084D01*
X687853Y562250D01*
X688218Y560416D01*
X689164Y559000D01*
X688218Y557584D01*
X687853Y555750D01*
X688218Y553916D01*
X689164Y552500D01*
X688218Y551084D01*
X687853Y549250D01*
X688218Y547416D01*
X689164Y546000D01*
X688218Y544584D01*
X688105Y544020D01*
X700253D01*
Y541480D01*
X688105D01*
X688218Y540916D01*
X689164Y539500D01*
X688218Y538084D01*
X687853Y536250D01*
X688218Y534416D01*
X689164Y533000D01*
X688218Y531584D01*
X687853Y529750D01*
X688218Y527916D01*
X689164Y526500D01*
X688218Y525084D01*
X687853Y523250D01*
X688218Y521416D01*
X689164Y520000D01*
X688218Y518584D01*
X687853Y516750D01*
X688218Y514916D01*
X689164Y513500D01*
X688218Y512084D01*
X687853Y510250D01*
X688218Y508416D01*
X689257Y506861D01*
X690811Y505822D01*
X692646Y505457D01*
X693532D01*
Y492290D01*
X685710D01*
Y477710D01*
X696487D01*
X697522Y477018D01*
X700000Y476526D01*
X702478Y477018D01*
X703513Y477710D01*
X712290D01*
Y478296D01*
X713560Y478549D01*
X713727Y478145D01*
X715145Y476727D01*
X716998Y475960D01*
X719003D01*
X720855Y476727D01*
X722273Y478145D01*
X723040Y479997D01*
Y482002D01*
X722783Y482623D01*
X725119Y484960D01*
X737290D01*
Y486526D01*
X742526D01*
Y474190D01*
X739860D01*
Y447810D01*
X748984D01*
X751526Y445268D01*
Y439040D01*
X748460D01*
Y423960D01*
X755113D01*
X756522Y423018D01*
X759000Y422526D01*
X761478Y423018D01*
X762887Y423960D01*
X767540D01*
Y426676D01*
X779000D01*
X781478Y427168D01*
X781914Y427460D01*
X785690D01*
Y438840D01*
X781914D01*
X781478Y439132D01*
X779000Y439624D01*
X764474D01*
Y447950D01*
X763982Y450428D01*
X762578Y452528D01*
X759140Y455966D01*
Y474190D01*
X755474D01*
Y483810D01*
X761890D01*
Y510190D01*
X742610D01*
Y499474D01*
X737290D01*
Y505730D01*
X728000D01*
Y507000D01*
X726730D01*
Y515040D01*
X725504D01*
X724978Y516310D01*
X725273Y516605D01*
X726040Y518457D01*
Y520462D01*
X725273Y522315D01*
X724358Y523230D01*
X725273Y524145D01*
X726040Y525998D01*
Y528003D01*
X725273Y529855D01*
X724480Y530648D01*
X723979Y531478D01*
X724480Y532307D01*
X725273Y533100D01*
X726040Y534953D01*
Y534960D01*
X733730D01*
Y543000D01*
X735000D01*
Y544270D01*
X744290D01*
Y548960D01*
Y552468D01*
X754950D01*
X756684Y552813D01*
X756755Y552860D01*
X777190D01*
Y554741D01*
X778363Y555227D01*
X788171Y545420D01*
X788172Y545414D01*
X788468Y544971D01*
Y510190D01*
X780520D01*
Y497000D01*
Y483810D01*
X788468D01*
Y464229D01*
X787960Y463003D01*
Y460998D01*
X788727Y459145D01*
X790145Y457727D01*
X791371Y457219D01*
X812281Y436310D01*
X811755Y435040D01*
X810997D01*
X809145Y434273D01*
X807727Y432855D01*
X807071Y431270D01*
X812000D01*
Y430000D01*
X813270D01*
Y425071D01*
X814855Y425727D01*
X816273Y427145D01*
X817040Y428997D01*
Y429755D01*
X818310Y430281D01*
X834795Y413795D01*
X834795Y413795D01*
X836266Y412813D01*
X838000Y412468D01*
X838000Y412468D01*
X868000D01*
X869734Y412813D01*
X871205Y413795D01*
X873437Y416027D01*
X874305Y416113D01*
X875622Y414795D01*
X877093Y413813D01*
X878827Y413468D01*
X898000D01*
X899734Y413813D01*
X901205Y414795D01*
X903610Y417200D01*
X903610Y417200D01*
X904592Y418671D01*
X904937Y420405D01*
Y421710D01*
X912040D01*
Y427468D01*
X914771D01*
X915997Y426960D01*
X918002D01*
X919855Y427727D01*
X920440Y428312D01*
X921710Y427786D01*
Y424270D01*
X940290D01*
Y428960D01*
Y434413D01*
X969945D01*
X971679Y434758D01*
X973150Y435740D01*
X976870Y439461D01*
X977003Y439425D01*
X978997D01*
X980924Y439941D01*
X982651Y440938D01*
X984062Y442349D01*
X985059Y444076D01*
X985575Y446003D01*
Y447997D01*
X985059Y449924D01*
X984062Y451651D01*
X982651Y453061D01*
X980924Y454059D01*
X978997Y454575D01*
X977003D01*
X975076Y454059D01*
X973349Y453061D01*
X971938Y451651D01*
X970941Y449924D01*
X970425Y447997D01*
Y446003D01*
X970461Y445870D01*
X968068Y443477D01*
X940290D01*
Y445040D01*
X925369D01*
X916499Y453911D01*
X916917Y455289D01*
X918064Y455517D01*
X919814Y456686D01*
X920983Y458436D01*
X921288Y459968D01*
X936500D01*
X938234Y460313D01*
X939705Y461295D01*
X951877Y473468D01*
X1014000D01*
X1015734Y473813D01*
X1017205Y474795D01*
X1020195Y477785D01*
X1021368Y477299D01*
Y452281D01*
X1020739Y451651D01*
X1019741Y449924D01*
X1019225Y447997D01*
Y446003D01*
X1019741Y444076D01*
X1020739Y442349D01*
X1022149Y440938D01*
X1023876Y439941D01*
X1025803Y439425D01*
X1027797D01*
X1029724Y439941D01*
X1031451Y440938D01*
X1032861Y442349D01*
X1033859Y444076D01*
X1034375Y446003D01*
Y447997D01*
X1033859Y449924D01*
X1032861Y451651D01*
X1031451Y453061D01*
X1030432Y453650D01*
Y480710D01*
X1037730D01*
Y490000D01*
X1039000D01*
Y491270D01*
X1047040D01*
Y494900D01*
X1048310Y495153D01*
X1048727Y494145D01*
X1050145Y492727D01*
X1051730Y492071D01*
Y497000D01*
Y501929D01*
X1050145Y501273D01*
X1048904Y500032D01*
X1048237Y499863D01*
X1047362Y499877D01*
X1047290Y499960D01*
X1047290Y500457D01*
Y507524D01*
X1048346Y508230D01*
X1048997Y507960D01*
X1051003D01*
X1052855Y508727D01*
X1054273Y510145D01*
X1055040Y511997D01*
Y514002D01*
X1054532Y515229D01*
Y518960D01*
X1056540D01*
Y527631D01*
X1063205Y534295D01*
X1063205Y534295D01*
X1064187Y535766D01*
X1064532Y537500D01*
Y556000D01*
X1064532Y556000D01*
X1064187Y557734D01*
X1063205Y559205D01*
X1057627Y564782D01*
X1056157Y565765D01*
X1055206Y565954D01*
X1052040Y569119D01*
Y576290D01*
X1033960D01*
Y565787D01*
X1032787Y565301D01*
X1026008Y572079D01*
X1025273Y573855D01*
X1024438Y574690D01*
X1024964Y575960D01*
X1031790D01*
Y594040D01*
X1031790Y594040D01*
X1031790D01*
X1032432Y595023D01*
X1033119Y595710D01*
X1040040D01*
Y612790D01*
D02*
G37*
G36*
X605929Y567627D02*
X602270D01*
Y563968D01*
X603855Y564624D01*
X605273Y566042D01*
X605929Y567627D01*
D02*
G37*
G36*
X599730D02*
X596071D01*
X596727Y566042D01*
X598145Y564624D01*
X599730Y563968D01*
Y567627D01*
D02*
G37*
G36*
X641895Y567480D02*
X617600D01*
X617712Y566916D01*
X618658Y565500D01*
X617712Y564084D01*
X617600Y563520D01*
X641895D01*
X641782Y564084D01*
X640836Y565500D01*
X641782Y566916D01*
X641895Y567480D01*
D02*
G37*
G36*
X584270Y543929D02*
Y540270D01*
X587929D01*
X587273Y541855D01*
X585855Y543273D01*
X584270Y543929D01*
D02*
G37*
G36*
X581730D02*
X580145Y543273D01*
X578727Y541855D01*
X578071Y540270D01*
X581730D01*
Y543929D01*
D02*
G37*
G36*
X777190Y545140D02*
X765270D01*
Y536770D01*
X777190D01*
Y545140D01*
D02*
G37*
G36*
X762730D02*
X750810D01*
Y536770D01*
X762730D01*
Y545140D01*
D02*
G37*
G36*
X744290Y541730D02*
X736270D01*
Y534960D01*
X744290D01*
Y541730D01*
D02*
G37*
G36*
X587929Y537730D02*
X584270D01*
Y534071D01*
X585855Y534727D01*
X587273Y536145D01*
X587929Y537730D01*
D02*
G37*
G36*
X581730D02*
X578071D01*
X578727Y536145D01*
X580145Y534727D01*
X581730Y534071D01*
Y537730D01*
D02*
G37*
G36*
X777190Y534230D02*
X765270D01*
Y525860D01*
X777190D01*
Y534230D01*
D02*
G37*
G36*
X762730D02*
X750810D01*
Y525860D01*
X762730D01*
Y534230D01*
D02*
G37*
G36*
X641895Y528480D02*
X617600D01*
X617712Y527916D01*
X618658Y526500D01*
X617712Y525084D01*
X617600Y524520D01*
X641895D01*
X641782Y525084D01*
X640836Y526500D01*
X641782Y527916D01*
X641895Y528480D01*
D02*
G37*
G36*
X737290Y515040D02*
X729270D01*
Y508270D01*
X737290D01*
Y515040D01*
D02*
G37*
G36*
X605250Y523474D02*
X604000D01*
X601522Y522982D01*
X599422Y521578D01*
X598018Y519478D01*
X597526Y517000D01*
X598018Y514522D01*
X599422Y512422D01*
X601522Y511018D01*
X602213Y510881D01*
X606422Y506672D01*
X608522Y505268D01*
X611000Y504776D01*
X613478Y505268D01*
X615359Y506526D01*
X619253D01*
X620306Y505822D01*
X622140Y505457D01*
X637355D01*
X639189Y505822D01*
X640743Y506861D01*
X641782Y508416D01*
X642147Y510250D01*
X641782Y512084D01*
X640836Y513500D01*
X641782Y514916D01*
X642147Y516750D01*
X641782Y518584D01*
X640836Y520000D01*
X641782Y521416D01*
X641895Y521980D01*
X617600D01*
X617712Y521416D01*
X618161Y520744D01*
X617482Y519474D01*
X612750D01*
X612067Y519339D01*
X609828Y521578D01*
X607728Y522982D01*
X605250Y523474D01*
D02*
G37*
G36*
X1054270Y501929D02*
Y498270D01*
X1057929D01*
X1057273Y499855D01*
X1055855Y501273D01*
X1054270Y501929D01*
D02*
G37*
G36*
X777980Y510190D02*
X769610D01*
Y498270D01*
X777980D01*
Y510190D01*
D02*
G37*
G36*
X1057929Y495730D02*
X1054270D01*
Y492071D01*
X1055855Y492727D01*
X1057273Y494145D01*
X1057929Y495730D01*
D02*
G37*
G36*
X619190Y498640D02*
X607270D01*
Y490270D01*
X619190D01*
Y498640D01*
D02*
G37*
G36*
X604730D02*
X592810D01*
Y490270D01*
X604730D01*
Y498640D01*
D02*
G37*
G36*
X777980Y495730D02*
X769610D01*
Y483810D01*
X777980D01*
Y495730D01*
D02*
G37*
G36*
X1047040Y488730D02*
X1040270D01*
Y480710D01*
X1047040D01*
Y488730D01*
D02*
G37*
G36*
X619190Y487730D02*
X607270D01*
Y479360D01*
X619190D01*
Y487730D01*
D02*
G37*
G36*
X604730D02*
X592810D01*
Y479360D01*
X604730D01*
Y487730D01*
D02*
G37*
G36*
X654290Y480790D02*
X627710D01*
Y471032D01*
X619190D01*
Y471640D01*
X592810D01*
Y452360D01*
X619190D01*
Y461968D01*
X627710D01*
Y443210D01*
X654290D01*
Y457468D01*
X685710D01*
Y454710D01*
X712290D01*
Y457468D01*
X714771D01*
X715997Y456960D01*
X718002D01*
X719855Y457727D01*
X721273Y459145D01*
X722040Y460998D01*
Y463003D01*
X721273Y464855D01*
X719855Y466273D01*
X718002Y467040D01*
X715997D01*
X714771Y466532D01*
X712290D01*
Y469290D01*
X685710D01*
Y466532D01*
X654290D01*
Y480790D01*
D02*
G37*
G36*
X786140Y474190D02*
X777770D01*
Y462270D01*
X786140D01*
Y474190D01*
D02*
G37*
G36*
X775230D02*
X766860D01*
Y462270D01*
X775230D01*
Y474190D01*
D02*
G37*
G36*
X726270Y451929D02*
Y448270D01*
X729929D01*
X729273Y449855D01*
X727855Y451273D01*
X726270Y451929D01*
D02*
G37*
G36*
X775230Y459730D02*
X766860D01*
Y447810D01*
X775230D01*
Y459730D01*
D02*
G37*
G36*
X786140D02*
X777770D01*
Y447810D01*
X781257D01*
X781695Y447723D01*
X783745D01*
X784183Y447810D01*
X786140D01*
Y448509D01*
X786950Y449050D01*
X787932Y450521D01*
X788277Y452255D01*
X787932Y453989D01*
X786950Y455460D01*
X786140Y456001D01*
Y459730D01*
D02*
G37*
G36*
X723730Y451929D02*
X722145Y451273D01*
X720727Y449855D01*
X720219Y448629D01*
X715123Y443532D01*
X712290D01*
Y446290D01*
X700270D01*
Y439000D01*
Y431710D01*
X710830D01*
X711171Y431057D01*
X711330Y430440D01*
X710018Y428478D01*
X709526Y426000D01*
X710018Y423522D01*
X711422Y421422D01*
X714422Y418422D01*
X716522Y417018D01*
X719000Y416526D01*
X726460D01*
Y414460D01*
X745540D01*
Y429540D01*
X726460D01*
Y429474D01*
X721682D01*
X720578Y430578D01*
X718478Y431982D01*
X716000Y432474D01*
X713560Y431989D01*
X713520Y431983D01*
X712290Y432686D01*
Y434468D01*
X717000D01*
X718734Y434813D01*
X720205Y435795D01*
X726629Y442219D01*
X727855Y442727D01*
X729273Y444145D01*
X729929Y445730D01*
X725000D01*
Y447000D01*
X723730D01*
Y451929D01*
D02*
G37*
G36*
X697730Y446290D02*
X685710D01*
Y440270D01*
X697730D01*
Y446290D01*
D02*
G37*
G36*
Y437730D02*
X685710D01*
Y431710D01*
X697730D01*
Y437730D01*
D02*
G37*
G36*
X810730Y428730D02*
X807071D01*
X807727Y427145D01*
X809145Y425727D01*
X810730Y425071D01*
Y428730D01*
D02*
G37*
G36*
X804290Y423040D02*
X790710D01*
Y418532D01*
X783150D01*
X783150Y418532D01*
X781416Y418187D01*
X779945Y417205D01*
X779945Y417205D01*
X779281Y416540D01*
X772310D01*
Y416207D01*
X767540D01*
Y420040D01*
X748460D01*
Y404960D01*
X767540D01*
Y407143D01*
X772310D01*
Y405160D01*
X785690D01*
Y409468D01*
X790710D01*
Y404960D01*
X804290D01*
Y423040D01*
D02*
G37*
G36*
X1103220Y463540D02*
X1098780D01*
X1094425Y462674D01*
X1090323Y460975D01*
X1086632Y458508D01*
X1083492Y455368D01*
X1081025Y451677D01*
X1079326Y447575D01*
X1078460Y443220D01*
Y438780D01*
X1079326Y434425D01*
X1081025Y430323D01*
X1083492Y426632D01*
X1086632Y423492D01*
X1090323Y421025D01*
X1094425Y419326D01*
X1098780Y418460D01*
X1103220D01*
X1107575Y419326D01*
X1111677Y421025D01*
X1115368Y423492D01*
X1118508Y426632D01*
X1120975Y430323D01*
X1122674Y434425D01*
X1123540Y438780D01*
Y443220D01*
X1122674Y447575D01*
X1120975Y451677D01*
X1118508Y455368D01*
X1115368Y458508D01*
X1111677Y460975D01*
X1107575Y462674D01*
X1103220Y463540D01*
D02*
G37*
G36*
X813230Y423040D02*
X807710D01*
Y415270D01*
X813230D01*
Y423040D01*
D02*
G37*
G36*
X940290Y421730D02*
X932270D01*
Y414960D01*
X940290D01*
Y421730D01*
D02*
G37*
G36*
X929730D02*
X921710D01*
Y414960D01*
X929730D01*
Y421730D01*
D02*
G37*
G36*
X1307220Y457540D02*
X1302780D01*
X1298425Y456674D01*
X1294323Y454975D01*
X1290632Y452508D01*
X1287492Y449368D01*
X1285025Y445677D01*
X1283326Y441575D01*
X1282460Y437220D01*
Y432780D01*
X1283326Y428425D01*
X1285025Y424323D01*
X1287492Y420632D01*
X1290632Y417492D01*
X1294323Y415025D01*
X1298425Y413326D01*
X1302780Y412460D01*
X1307220D01*
X1311575Y413326D01*
X1315677Y415025D01*
X1319368Y417492D01*
X1322508Y420632D01*
X1324975Y424323D01*
X1326674Y428425D01*
X1327540Y432780D01*
Y437220D01*
X1326674Y441575D01*
X1324975Y445677D01*
X1322508Y449368D01*
X1319368Y452508D01*
X1315677Y454975D01*
X1311575Y456674D01*
X1307220Y457540D01*
D02*
G37*
G36*
X367220D02*
X362780D01*
X358425Y456674D01*
X354323Y454975D01*
X350632Y452508D01*
X347492Y449368D01*
X345025Y445677D01*
X343326Y441575D01*
X342460Y437220D01*
Y432780D01*
X343326Y428425D01*
X345025Y424323D01*
X347492Y420632D01*
X350632Y417492D01*
X354323Y415025D01*
X358425Y413326D01*
X362780Y412460D01*
X367220D01*
X371575Y413326D01*
X375677Y415025D01*
X379368Y417492D01*
X382508Y420632D01*
X384975Y424323D01*
X386674Y428425D01*
X387540Y432780D01*
Y437220D01*
X386674Y441575D01*
X384975Y445677D01*
X382508Y449368D01*
X379368Y452508D01*
X375677Y454975D01*
X371575Y456674D01*
X367220Y457540D01*
D02*
G37*
G36*
X569720Y457540D02*
X565280D01*
X560925Y456674D01*
X556823Y454975D01*
X553132Y452508D01*
X549992Y449368D01*
X547525Y445677D01*
X545826Y441575D01*
X544960Y437220D01*
Y432780D01*
X545826Y428425D01*
X547525Y424323D01*
X549992Y420632D01*
X553132Y417492D01*
X556823Y415025D01*
X560925Y413326D01*
X565280Y412460D01*
X569720D01*
X574075Y413326D01*
X578177Y415025D01*
X581868Y417492D01*
X585008Y420632D01*
X587475Y424323D01*
X589174Y428425D01*
X590040Y432780D01*
Y437220D01*
X589174Y441575D01*
X587475Y445677D01*
X585008Y449368D01*
X581868Y452508D01*
X578177Y454975D01*
X574075Y456674D01*
X569720Y457540D01*
D02*
G37*
G36*
X813230Y412730D02*
X807710D01*
Y404960D01*
X813230D01*
Y412730D01*
D02*
G37*
G36*
X821290Y423040D02*
X815770D01*
Y414000D01*
Y404960D01*
X816407D01*
X816845Y404873D01*
X819595D01*
X820033Y404960D01*
X821290D01*
Y405210D01*
X821329Y405218D01*
X822800Y406200D01*
X823782Y407671D01*
X824127Y409405D01*
X823782Y411139D01*
X822800Y412610D01*
X821329Y413592D01*
X821290Y413600D01*
Y423040D01*
D02*
G37*
%LPD*%
G36*
X862605Y557572D02*
X862346Y557052D01*
X861856Y556525D01*
X860000Y556894D01*
X857936Y556483D01*
X856186Y555314D01*
X855017Y553564D01*
X854712Y552032D01*
X818377D01*
X813199Y557210D01*
X813737Y558468D01*
X861708D01*
X862605Y557572D01*
D02*
G37*
G36*
X814000Y580468D02*
X872960D01*
Y574270D01*
X881000D01*
Y573000D01*
X882270D01*
Y563710D01*
X887791D01*
Y556676D01*
X886671Y556077D01*
X886064Y556483D01*
X885270Y556641D01*
Y547500D01*
Y538359D01*
X886064Y538517D01*
X887814Y539686D01*
X888186D01*
X889936Y538517D01*
X892000Y538106D01*
X894064Y538517D01*
X895814Y539686D01*
X896186D01*
X897936Y538517D01*
X900000Y538106D01*
X902064Y538517D01*
X903814Y539686D01*
X904186D01*
X905936Y538517D01*
X908000Y538106D01*
X910064Y538517D01*
X911814Y539686D01*
X912186D01*
X913936Y538517D01*
X916000Y538106D01*
X918064Y538517D01*
X919814Y539686D01*
X920983Y541436D01*
X921387Y543468D01*
X951323D01*
X965579Y529212D01*
X965244Y527962D01*
X964499Y527542D01*
X964053Y527357D01*
X962205Y529205D01*
X960734Y530187D01*
X959000Y530532D01*
X947319D01*
X946545Y531802D01*
X947040Y532998D01*
Y535003D01*
X946273Y536855D01*
X944855Y538273D01*
X943002Y539040D01*
X940997D01*
X939771Y538532D01*
X936239D01*
X935564Y538983D01*
X933500Y539394D01*
X925500D01*
X923436Y538983D01*
X921686Y537814D01*
X920517Y536064D01*
X920106Y534000D01*
X920517Y531936D01*
X921152Y530985D01*
X921601Y530000D01*
X921152Y529015D01*
X920517Y528064D01*
X920106Y526000D01*
X920517Y523936D01*
X921686Y522186D01*
Y521814D01*
X920517Y520064D01*
X920106Y518000D01*
X920517Y515936D01*
X921152Y514985D01*
X921601Y514000D01*
X921152Y513015D01*
X920517Y512064D01*
X920106Y510000D01*
X920517Y507936D01*
X921686Y506186D01*
Y505814D01*
X920517Y504064D01*
X920106Y502000D01*
X920517Y499936D01*
X921686Y498186D01*
Y497814D01*
X920517Y496064D01*
X920106Y494000D01*
X920517Y491936D01*
X921152Y490985D01*
X921601Y490000D01*
X921152Y489015D01*
X920517Y488064D01*
X920106Y486000D01*
X920517Y483936D01*
X921686Y482186D01*
Y481814D01*
X920517Y480064D01*
X920106Y478000D01*
X920517Y475936D01*
X921686Y474186D01*
X923436Y473017D01*
X925500Y472606D01*
X933500D01*
X935564Y473017D01*
X936205Y473445D01*
X937121Y473260D01*
X937572Y471982D01*
X934623Y469032D01*
X921288D01*
X920983Y470564D01*
X919814Y472314D01*
X918064Y473483D01*
X916000Y473894D01*
X913936Y473483D01*
X912186Y472314D01*
X911814D01*
X910064Y473483D01*
X908000Y473894D01*
X905936Y473483D01*
X904186Y472314D01*
X903814D01*
X902064Y473483D01*
X900000Y473894D01*
X897936Y473483D01*
X896186Y472314D01*
X895814D01*
X894064Y473483D01*
X893270Y473641D01*
Y464500D01*
X890730D01*
Y473641D01*
X889936Y473483D01*
X888186Y472314D01*
X887814D01*
X886064Y473483D01*
X884000Y473894D01*
X881936Y473483D01*
X880186Y472314D01*
X879814D01*
X878064Y473483D01*
X877270Y473641D01*
Y464500D01*
Y455290D01*
X878468Y454376D01*
Y444127D01*
X874631Y440290D01*
X861077D01*
X859734Y441187D01*
X858000Y441532D01*
X856266Y441187D01*
X854923Y440290D01*
X850960D01*
Y432270D01*
X859000D01*
Y429730D01*
X850960D01*
Y421710D01*
X849764Y421532D01*
X839877D01*
X797781Y463629D01*
X797532Y464229D01*
Y545771D01*
X798040Y546997D01*
Y547003D01*
X799213Y547489D01*
X812468Y534234D01*
Y514744D01*
X811960Y513517D01*
Y511512D01*
X812727Y509660D01*
X814145Y508242D01*
X815997Y507475D01*
X818002D01*
X819855Y508242D01*
X821273Y509660D01*
X822040Y511512D01*
Y513517D01*
X821532Y514744D01*
Y536111D01*
X821532Y536111D01*
X821187Y537846D01*
X820205Y539316D01*
X820205Y539316D01*
X817726Y541795D01*
X818212Y542968D01*
X854712D01*
X855017Y541436D01*
X856186Y539686D01*
X857936Y538517D01*
X860000Y538106D01*
X862064Y538517D01*
X863814Y539686D01*
X864186D01*
X865936Y538517D01*
X868000Y538106D01*
X870064Y538517D01*
X871814Y539686D01*
X872186D01*
X873936Y538517D01*
X876000Y538106D01*
X878064Y538517D01*
X879814Y539686D01*
X880186D01*
X881936Y538517D01*
X882730Y538359D01*
Y547500D01*
Y556641D01*
X881936Y556483D01*
X880186Y555314D01*
X879814D01*
X878064Y556483D01*
X876000Y556894D01*
X873936Y556483D01*
X873652Y556293D01*
X872532Y556892D01*
Y558586D01*
X872187Y560320D01*
X871205Y561790D01*
X866790Y566205D01*
X865320Y567187D01*
X863586Y567532D01*
X813229D01*
X812002Y568040D01*
X809997D01*
X808145Y567273D01*
X806727Y565855D01*
X806528Y565374D01*
X805283Y565127D01*
X798781Y571629D01*
X798273Y572855D01*
X796855Y574273D01*
X795003Y575040D01*
X792998D01*
X791145Y574273D01*
X789727Y572855D01*
X789357Y571960D01*
X787859Y571662D01*
X780781Y578740D01*
X780591Y579198D01*
X781431Y580468D01*
X813619D01*
X813810Y580506D01*
X814000Y580468D01*
D02*
G37*
G36*
X991512Y556078D02*
X991250Y555624D01*
X990610Y553236D01*
Y550764D01*
X991250Y548376D01*
X992486Y546234D01*
X994234Y544486D01*
X996376Y543250D01*
X998764Y542610D01*
X1001236D01*
X1003624Y543250D01*
X1005766Y544486D01*
X1006295Y545015D01*
X1007468Y544529D01*
Y540477D01*
X1002612Y535621D01*
X1001236Y535990D01*
X998764D01*
X996376Y535350D01*
X994234Y534114D01*
X992486Y532366D01*
X991250Y530224D01*
X990949Y529103D01*
X989991Y528912D01*
X988521Y527930D01*
X985067Y524476D01*
X983928Y525134D01*
X983990Y525364D01*
Y527836D01*
X983350Y530224D01*
X982114Y532366D01*
X980366Y534114D01*
X978224Y535350D01*
X975836Y535990D01*
X973364D01*
X971988Y535621D01*
X966269Y541340D01*
X966795Y542610D01*
X983990D01*
Y558763D01*
X988828D01*
X991512Y556078D01*
D02*
G37*
G36*
X1037460Y547809D02*
Y537960D01*
X1052391D01*
X1052877Y536787D01*
X1050131Y534040D01*
X1037460D01*
Y521609D01*
X1036287Y521123D01*
X1031532Y525877D01*
Y528460D01*
X1034540D01*
Y543540D01*
X1026532D01*
Y554771D01*
X1027040Y555998D01*
Y556433D01*
X1028310Y556959D01*
X1037460Y547809D01*
D02*
G37*
G36*
X1015460Y533855D02*
Y528460D01*
X1022468D01*
Y524000D01*
X1022813Y522266D01*
X1023795Y520795D01*
X1025377Y519213D01*
X1024891Y518040D01*
X1016710D01*
Y517027D01*
X1004739D01*
X1004399Y518297D01*
X1005766Y519086D01*
X1007514Y520834D01*
X1008750Y522976D01*
X1009390Y525364D01*
Y527836D01*
X1009021Y529212D01*
X1014190Y534381D01*
X1015460Y533855D01*
D02*
G37*
G36*
X951070Y520198D02*
X950727Y519855D01*
X949960Y518003D01*
Y515998D01*
X950468Y514771D01*
Y502229D01*
X949960Y501003D01*
Y498997D01*
X950727Y497145D01*
X952145Y495727D01*
X953997Y494960D01*
X956003D01*
X957855Y495727D01*
X959273Y497145D01*
X960040Y498997D01*
Y501003D01*
X959532Y502229D01*
Y514771D01*
X960040Y515998D01*
Y516755D01*
X961310Y517281D01*
X967795Y510795D01*
X967795Y510795D01*
X968771Y510144D01*
X968834Y508714D01*
X967086Y506966D01*
X965850Y504824D01*
X965210Y502436D01*
Y499964D01*
X965850Y497576D01*
X967086Y495434D01*
X968834Y493686D01*
X970976Y492450D01*
X973364Y491810D01*
X975836D01*
X978224Y492450D01*
X980366Y493686D01*
X982114Y495434D01*
X983350Y497576D01*
X983448Y497943D01*
X983475D01*
X985209Y498288D01*
X986680Y499270D01*
X989340Y501931D01*
X990610Y501405D01*
Y499964D01*
X991250Y497576D01*
X992486Y495434D01*
X994234Y493686D01*
X996376Y492450D01*
X998730Y491819D01*
Y501200D01*
X1000000D01*
Y502470D01*
X1009381D01*
X1008750Y504824D01*
X1007671Y506693D01*
X1008142Y507963D01*
X1016710D01*
Y500457D01*
X1016710Y499960D01*
X1016710D01*
X1016960Y499290D01*
X1016960Y499290D01*
Y487369D01*
X1012123Y482532D01*
X950000D01*
X948266Y482187D01*
X946795Y481205D01*
X946795Y481205D01*
X946558Y480967D01*
X946223Y480955D01*
X945186Y481392D01*
X945101Y481974D01*
X946273Y483145D01*
X947040Y484997D01*
Y487002D01*
X946273Y488855D01*
X945128Y490000D01*
X946273Y491145D01*
X947040Y492998D01*
Y495003D01*
X946273Y496855D01*
X945128Y498000D01*
X946273Y499145D01*
X947040Y500998D01*
Y503003D01*
X946273Y504855D01*
X945128Y506000D01*
X946273Y507145D01*
X947040Y508997D01*
Y511003D01*
X946273Y512855D01*
X945128Y514000D01*
X946273Y515145D01*
X947040Y516997D01*
Y519002D01*
X946545Y520198D01*
X947319Y521468D01*
X950544D01*
X951070Y520198D01*
D02*
G37*
%LPC*%
G36*
X879730Y571730D02*
X872960D01*
Y563710D01*
X879730D01*
Y571730D01*
D02*
G37*
G36*
X835003Y540040D02*
X832998D01*
X831145Y539273D01*
X829727Y537855D01*
X828960Y536003D01*
Y533997D01*
X829727Y532145D01*
X830872Y531000D01*
X829727Y529855D01*
X828960Y528003D01*
Y525998D01*
X829727Y524145D01*
X831145Y522727D01*
X832998Y521960D01*
X835003D01*
X836229Y522468D01*
X837596D01*
X838275Y521198D01*
X837517Y520064D01*
X837106Y518000D01*
X837517Y515936D01*
X838686Y514186D01*
Y513814D01*
X837517Y512064D01*
X837106Y510000D01*
X837517Y507936D01*
X837707Y507652D01*
X837108Y506532D01*
X831179D01*
X831178Y506532D01*
X829444Y506187D01*
X827974Y505205D01*
X827974Y505205D01*
X821795Y499026D01*
X820813Y497556D01*
X820468Y495822D01*
Y453229D01*
X819960Y452002D01*
Y449997D01*
X820727Y448145D01*
X822145Y446727D01*
X823997Y445960D01*
X826003D01*
X827855Y446727D01*
X829273Y448145D01*
X830040Y449997D01*
Y452002D01*
X829532Y453229D01*
Y472681D01*
X830802Y473455D01*
X831998Y472960D01*
X834003D01*
X835229Y473468D01*
X839761D01*
X840436Y473017D01*
X842500Y472606D01*
X850500D01*
X852564Y473017D01*
X854314Y474186D01*
X855483Y475936D01*
X855894Y478000D01*
X855483Y480064D01*
X854314Y481814D01*
Y482186D01*
X855483Y483936D01*
X855894Y486000D01*
X855483Y488064D01*
X854847Y489015D01*
X854399Y490000D01*
X854847Y490985D01*
X855483Y491936D01*
X855894Y494000D01*
X855483Y496064D01*
X854314Y497814D01*
Y498186D01*
X855483Y499936D01*
X855894Y502000D01*
X855483Y504064D01*
X854314Y505814D01*
Y506186D01*
X855483Y507936D01*
X855894Y510000D01*
X855483Y512064D01*
X854847Y513015D01*
X854399Y514000D01*
X854847Y514985D01*
X855483Y515936D01*
X855894Y518000D01*
X855483Y520064D01*
X854314Y521814D01*
Y522186D01*
X855483Y523936D01*
X855894Y526000D01*
X855483Y528064D01*
X854847Y529015D01*
X854399Y530000D01*
X854847Y530985D01*
X855483Y531936D01*
X855894Y534000D01*
X855483Y536064D01*
X854314Y537814D01*
X852564Y538983D01*
X850500Y539394D01*
X842500D01*
X840436Y538983D01*
X839761Y538532D01*
X837596D01*
X836855Y539273D01*
X835003Y540040D01*
D02*
G37*
G36*
X868000Y473894D02*
X865936Y473483D01*
X864186Y472314D01*
X863814D01*
X862064Y473483D01*
X860000Y473894D01*
X857936Y473483D01*
X856186Y472314D01*
X855017Y470564D01*
X854606Y468500D01*
Y460500D01*
X855017Y458436D01*
X855468Y457761D01*
Y454229D01*
X854960Y453003D01*
Y450998D01*
X855727Y449145D01*
X857145Y447727D01*
X858997Y446960D01*
X861003D01*
X862855Y447727D01*
X864132Y449004D01*
X865145Y447991D01*
X866998Y447224D01*
X869003D01*
X870855Y447991D01*
X872273Y449409D01*
X873040Y451261D01*
Y453266D01*
X872532Y454492D01*
Y455108D01*
X873652Y455707D01*
X873936Y455517D01*
X874730Y455359D01*
Y464500D01*
Y473641D01*
X873936Y473483D01*
X872186Y472314D01*
X871814D01*
X870064Y473483D01*
X868000Y473894D01*
D02*
G37*
G36*
X813270Y463929D02*
Y460270D01*
X816929D01*
X816273Y461855D01*
X814855Y463273D01*
X813270Y463929D01*
D02*
G37*
G36*
X810730D02*
X809145Y463273D01*
X807727Y461855D01*
X807071Y460270D01*
X810730D01*
Y463929D01*
D02*
G37*
G36*
X816929Y457730D02*
X813270D01*
Y454071D01*
X814855Y454727D01*
X816273Y456145D01*
X816929Y457730D01*
D02*
G37*
G36*
X810730D02*
X807071D01*
X807727Y456145D01*
X809145Y454727D01*
X810730Y454071D01*
Y457730D01*
D02*
G37*
G36*
X1009381Y499930D02*
X1001270D01*
Y491819D01*
X1003624Y492450D01*
X1005766Y493686D01*
X1007514Y495434D01*
X1008750Y497576D01*
X1009381Y499930D01*
D02*
G37*
%LPD*%
D17*
X699000Y439000D02*
D03*
Y462000D02*
D03*
Y485000D02*
D03*
D18*
X641000Y462000D02*
D03*
D19*
X728000Y493000D02*
D03*
Y507000D02*
D03*
X880000Y947000D02*
D03*
Y933000D02*
D03*
X735000Y543000D02*
D03*
Y557000D02*
D03*
X931000Y437000D02*
D03*
Y423000D02*
D03*
D20*
X623500Y894000D02*
D03*
X606500D02*
D03*
X623500Y876000D02*
D03*
X606500D02*
D03*
X623500Y840000D02*
D03*
X606500D02*
D03*
X408500Y790000D02*
D03*
X391500D02*
D03*
X623500Y858000D02*
D03*
X606500D02*
D03*
X1043000Y844000D02*
D03*
X1060000D02*
D03*
X1043000Y881000D02*
D03*
X1060000D02*
D03*
X1042500Y862000D02*
D03*
X1059500D02*
D03*
X1076500Y899000D02*
D03*
X1059500D02*
D03*
X797500Y414000D02*
D03*
X814500D02*
D03*
X733500Y582000D02*
D03*
X750500D02*
D03*
X1025000Y585000D02*
D03*
X1008000D02*
D03*
X1023500Y509000D02*
D03*
X1040500D02*
D03*
X989000Y585000D02*
D03*
X972000D02*
D03*
D21*
X649400Y914100D02*
D03*
X662100D02*
D03*
X674800D02*
D03*
X687500D02*
D03*
X700200D02*
D03*
X712900D02*
D03*
X725600D02*
D03*
Y860900D02*
D03*
X712900D02*
D03*
X700200D02*
D03*
X687500D02*
D03*
X674800D02*
D03*
X662100D02*
D03*
X649400D02*
D03*
X1023100D02*
D03*
X1010400D02*
D03*
X997700D02*
D03*
X985000D02*
D03*
X972300D02*
D03*
X959600D02*
D03*
X946900D02*
D03*
Y914100D02*
D03*
X959600D02*
D03*
X972300D02*
D03*
X985000D02*
D03*
X997700D02*
D03*
X1010400D02*
D03*
X1023100D02*
D03*
D22*
X762000Y859500D02*
D03*
Y876500D02*
D03*
X780000Y859500D02*
D03*
Y876500D02*
D03*
X529000Y858500D02*
D03*
Y875500D02*
D03*
X547000Y878000D02*
D03*
Y895000D02*
D03*
X877000Y868500D02*
D03*
Y851500D02*
D03*
X803000Y876000D02*
D03*
Y859000D02*
D03*
X895000Y868500D02*
D03*
Y851500D02*
D03*
X1141000Y862000D02*
D03*
Y845000D02*
D03*
X1280000Y781500D02*
D03*
Y798500D02*
D03*
X1206000Y846500D02*
D03*
Y863500D02*
D03*
X1224000Y846500D02*
D03*
Y863500D02*
D03*
X1043000Y586500D02*
D03*
Y569500D02*
D03*
X948000Y586500D02*
D03*
Y569500D02*
D03*
D23*
X890000Y791500D02*
D03*
X880000D02*
D03*
X870000D02*
D03*
X860000D02*
D03*
X850000D02*
D03*
X840000D02*
D03*
X780000D02*
D03*
X790000D02*
D03*
X800000D02*
D03*
X830000D02*
D03*
X810000D02*
D03*
X820000D02*
D03*
X850000Y621000D02*
D03*
X860000D02*
D03*
X840000D02*
D03*
X870000D02*
D03*
X880000D02*
D03*
X890000D02*
D03*
X830000D02*
D03*
X820000D02*
D03*
X810000D02*
D03*
X800000D02*
D03*
X790000D02*
D03*
X780000D02*
D03*
D24*
X754000Y767500D02*
D03*
X916000D02*
D03*
X754000Y645000D02*
D03*
X916000D02*
D03*
D25*
X629747Y581750D02*
D03*
D26*
Y575250D02*
D03*
Y568750D02*
D03*
Y562250D02*
D03*
Y555750D02*
D03*
Y549250D02*
D03*
Y542750D02*
D03*
Y536250D02*
D03*
Y529750D02*
D03*
Y523250D02*
D03*
Y516750D02*
D03*
Y510250D02*
D03*
X700253D02*
D03*
Y516750D02*
D03*
Y523250D02*
D03*
Y529750D02*
D03*
Y536250D02*
D03*
Y542750D02*
D03*
Y549250D02*
D03*
Y555750D02*
D03*
Y562250D02*
D03*
Y568750D02*
D03*
Y575250D02*
D03*
Y581750D02*
D03*
D27*
X606000Y489000D02*
D03*
Y462000D02*
D03*
X764000Y535500D02*
D03*
Y562500D02*
D03*
D28*
X776500Y461000D02*
D03*
X749500D02*
D03*
X779250Y497000D02*
D03*
X752250D02*
D03*
D29*
X758000Y412500D02*
D03*
Y431500D02*
D03*
X736000Y422000D02*
D03*
X1025000Y536000D02*
D03*
X1047000Y545500D02*
D03*
Y526500D02*
D03*
D30*
X779000Y433150D02*
D03*
Y410850D02*
D03*
D31*
X1031500Y604250D02*
D03*
X1010500D02*
D03*
X989750Y604000D02*
D03*
X968750D02*
D03*
D32*
X1025000Y490000D02*
D03*
X1039000D02*
D03*
X930000Y571000D02*
D03*
X916000D02*
D03*
X881000Y573000D02*
D03*
X895000D02*
D03*
X859000Y431000D02*
D03*
X873000D02*
D03*
X890000D02*
D03*
X904000D02*
D03*
D33*
X846500Y478000D02*
D03*
Y486000D02*
D03*
Y494000D02*
D03*
Y502000D02*
D03*
Y510000D02*
D03*
Y518000D02*
D03*
Y526000D02*
D03*
Y534000D02*
D03*
X929500D02*
D03*
Y526000D02*
D03*
Y518000D02*
D03*
Y510000D02*
D03*
Y502000D02*
D03*
Y494000D02*
D03*
Y486000D02*
D03*
Y478000D02*
D03*
D34*
X860000Y547500D02*
D03*
X868000D02*
D03*
X876000D02*
D03*
X884000D02*
D03*
X892000D02*
D03*
X900000D02*
D03*
X908000D02*
D03*
X916000D02*
D03*
Y464500D02*
D03*
X908000D02*
D03*
X900000D02*
D03*
X892000D02*
D03*
X884000D02*
D03*
X876000D02*
D03*
X868000D02*
D03*
X860000D02*
D03*
D48*
X489000Y618000D02*
D03*
D49*
X514400D02*
D03*
D59*
X425833Y858286D02*
G03*
X424377Y857377I1238J-3604D01*
G01*
X624000Y837250D02*
X625845Y835405D01*
X628072D02*
X628077Y835400D01*
X662100D01*
X625845Y835405D02*
X628072D01*
X699000Y439000D02*
X717000D01*
X606772Y825228D02*
Y840228D01*
Y825228D02*
X607000Y825000D01*
X606000Y841000D02*
X606772Y840228D01*
X529000Y830000D02*
X542000Y817000D01*
X728000D01*
X757405Y846405D01*
X529000Y830000D02*
Y858500D01*
X931500Y569500D02*
X944500D01*
X945000Y570000D01*
X930000Y571000D02*
X931500Y569500D01*
X892000Y448944D02*
Y463250D01*
X890000Y446944D02*
X892000Y448944D01*
X890000Y431000D02*
Y446944D01*
X891750Y463500D02*
X892000Y463250D01*
X718000Y481000D02*
X718228Y481228D01*
Y484478D01*
X726750Y493000D01*
X727000D01*
X1047595Y591095D02*
X1048000Y591500D01*
X1045250Y586500D02*
X1047595Y588845D01*
X1048000Y591500D02*
Y597000D01*
X1043000Y586500D02*
X1045250D01*
X1047595Y588845D02*
Y591095D01*
X814000Y412250D02*
Y415000D01*
Y412250D02*
X816845Y409405D01*
X819595D01*
X1021000Y570678D02*
X1041905Y549773D01*
X1021000Y570678D02*
Y571000D01*
X725600Y917100D02*
Y926400D01*
X713000Y914200D02*
Y926000D01*
X700200Y914100D02*
Y926200D01*
X710000Y936000D01*
X716000D02*
X725600Y926400D01*
X710000Y936000D02*
X716000D01*
X696000Y932000D02*
X707000Y943000D01*
X721000D01*
X779000Y850000D02*
Y860000D01*
X726595Y858000D02*
X734000D01*
X725600Y858995D02*
X726595Y858000D01*
X757405Y857155D02*
X760250Y860000D01*
X725600Y858995D02*
Y860900D01*
X760250Y860000D02*
X761000D01*
X750000Y849445D02*
Y886000D01*
X742000Y854232D02*
Y894700D01*
X780000Y876500D02*
Y895050D01*
X762000Y876500D02*
Y922000D01*
X726595Y910105D02*
X742000Y894700D01*
X726595Y910105D02*
Y913000D01*
X725700Y913895D02*
X726595Y913000D01*
X725700Y913895D02*
Y914000D01*
X725600Y914100D02*
X725700Y914000D01*
X738095Y918095D02*
X779000Y959000D01*
X725600Y914100D02*
Y917100D01*
X726595Y918095D01*
X738095D01*
X721000Y943000D02*
X735322Y928678D01*
X606500Y841000D02*
Y858000D01*
Y875000D01*
X649400Y843100D02*
X650000Y842500D01*
X649400Y843100D02*
Y860900D01*
X624000Y859000D02*
Y859055D01*
X625845Y860900D01*
X649400D01*
X662100Y835400D02*
Y860900D01*
X675795Y916795D02*
Y922883D01*
X678295Y925383D01*
X687500Y914100D02*
Y936500D01*
X678295Y925383D02*
Y925705D01*
X685000Y939000D02*
X687500Y936500D01*
X902500Y957500D02*
X972500D01*
X909000Y940000D02*
X912650Y943650D01*
X920000Y933768D02*
X922232Y936000D01*
X906280Y950000D02*
X970000D01*
X912650Y943650D02*
X966350D01*
X922232Y936000D02*
X964000D01*
X972300Y927700D01*
X966350Y943650D02*
X975300Y934700D01*
X835773Y863295D02*
X835795D01*
X830000Y930000D02*
X847000Y947000D01*
X874405Y950595D02*
X875155D01*
X847000Y947000D02*
X878750D01*
X862500Y879772D02*
X863478D01*
X835795Y863295D02*
X895000Y922500D01*
X863478Y879772D02*
X874750Y868500D01*
X866000Y959000D02*
X874405Y950595D01*
X875155Y931155D02*
X877000Y933000D01*
X875155Y950595D02*
X878750Y947000D01*
X880000D02*
X881250D01*
X890000Y955750D01*
Y958000D01*
X909000Y859000D02*
Y940000D01*
X862500Y880000D02*
X901350Y918850D01*
X895000Y922500D02*
Y950000D01*
X902500Y957500D01*
X901350Y918850D02*
Y945070D01*
X906280Y950000D01*
X928000Y908000D02*
X934100Y914100D01*
X946900D01*
X959600D02*
Y925600D01*
X960000Y926000D01*
X1076000Y869377D02*
Y885678D01*
X1076322Y886000D01*
X1076550D01*
X1186500Y883000D02*
X1206000Y863500D01*
X1076772Y886000D02*
Y899228D01*
X1077945Y861945D02*
X1087000Y871000D01*
X1071000Y925000D02*
X1113000Y883000D01*
X1087000Y871000D02*
X1113000D01*
X1130000Y867000D02*
X1133750D01*
X1138750Y862000D01*
X1113000Y883000D02*
X1186500D01*
X942000Y818000D02*
X1247000D01*
X1206000Y837000D02*
Y846500D01*
X797405Y861345D02*
X799655D01*
X780000Y876500D02*
X782250D01*
X797405Y861345D01*
X780000Y895050D02*
X804000Y919050D01*
X830000Y895000D02*
Y930000D01*
X803000Y876000D02*
Y889000D01*
X804000Y919050D02*
Y920000D01*
X779000Y959000D02*
X866000D01*
X810000Y847500D02*
X842500Y880000D01*
X780000Y791500D02*
Y817178D01*
X810000Y792500D02*
Y847500D01*
X819365Y793135D02*
Y846865D01*
Y793135D02*
X820000Y792500D01*
X837983Y820208D02*
X840000Y818192D01*
X830000Y790000D02*
Y847178D01*
X870000Y787500D02*
Y791500D01*
X840000Y792500D02*
Y818192D01*
X847500Y816020D02*
Y832034D01*
Y816020D02*
X850000Y813520D01*
Y792500D02*
Y813520D01*
X855000Y817500D02*
Y834678D01*
Y817500D02*
X860000Y812500D01*
Y792500D02*
Y812500D01*
X862500Y822500D02*
Y836158D01*
Y822500D02*
X870000Y815000D01*
Y791500D02*
Y815000D01*
X870650Y826850D02*
X880000Y817500D01*
Y792500D02*
Y817500D01*
X943000Y828000D02*
X946000D01*
X920000Y840000D02*
X942000Y818000D01*
X790000Y827500D02*
X798405Y835905D01*
Y856655D01*
X800750Y859000D01*
X799655Y861345D02*
X802000Y859000D01*
X800750D02*
X803000D01*
X819365Y846865D02*
X831705Y859205D01*
X830000Y847178D02*
X832500Y849678D01*
X831705Y859205D02*
Y859227D01*
X832500Y850000D02*
X832500D01*
Y849678D02*
Y850000D01*
X831705Y859227D02*
X835773Y863295D01*
X837983Y820208D02*
Y840465D01*
X839445Y841927D01*
X838650Y856350D02*
X838878Y856122D01*
Y853444D02*
Y856122D01*
Y853444D02*
X839445Y852877D01*
Y841927D02*
Y852877D01*
X844928Y834606D02*
Y834928D01*
Y834606D02*
X847500Y832034D01*
Y842178D02*
Y842500D01*
Y842178D02*
X855000Y834678D01*
Y843658D02*
Y864000D01*
Y843658D02*
X862500Y836158D01*
X861945Y845694D02*
Y869055D01*
Y845694D02*
X870650Y836989D01*
Y826850D02*
Y836989D01*
X874750Y868500D02*
X877000D01*
Y838000D02*
Y851500D01*
Y838000D02*
X887500Y827500D01*
X877000Y851500D02*
X894500D01*
X893000Y879000D02*
X895000Y877000D01*
X903845Y853845D02*
X909000Y859000D01*
X895000Y868500D02*
Y877000D01*
Y851500D02*
X897345Y853845D01*
X903845D01*
X920000Y840000D02*
Y933768D01*
X928000Y843000D02*
Y908000D01*
Y843000D02*
X943000Y828000D01*
X936000Y864800D02*
Y905000D01*
Y864800D02*
X939900Y860900D01*
X946900D01*
X947000Y860800D01*
Y850000D02*
Y860800D01*
X959600Y833400D02*
Y860900D01*
Y833400D02*
X966000Y827000D01*
X649400Y914100D02*
Y917100D01*
X662100Y914100D02*
Y917100D01*
X667772Y922772D01*
X623500Y908500D02*
X647000Y932000D01*
X649400Y917100D02*
X657435Y925135D01*
X667772Y922772D02*
Y925772D01*
X659695Y925135D02*
X659775Y925055D01*
X657435Y925135D02*
X659695D01*
X668000Y925705D02*
Y926027D01*
X666720Y927307D02*
X668000Y926027D01*
X666720Y927307D02*
Y927932D01*
X662652Y932000D02*
X666720Y927932D01*
X647000Y932000D02*
X662652D01*
X641000Y939000D02*
X685000D01*
X408500Y841500D02*
X424377Y857377D01*
X391500Y840500D02*
X417000Y866000D01*
X425833Y858286D02*
X524000Y892000D01*
X545000Y876000D02*
X547000Y878000D01*
X557000D01*
X569297Y895000D02*
X582298Y882000D01*
X557000Y878000D02*
X559000Y880000D01*
X604155Y880595D02*
X606500Y878250D01*
X529000Y875500D02*
Y885000D01*
X601905Y880595D02*
X604155D01*
X582298Y882000D02*
X600000D01*
X528000Y886000D02*
X529000Y885000D01*
X524000Y892000D02*
X525020D01*
X530980D02*
X541000D01*
X530630Y892350D02*
X530980Y892000D01*
X525020D02*
X525370Y892350D01*
X541000Y892000D02*
X541655Y892655D01*
X525370Y892350D02*
X530630D01*
X541655Y892655D02*
X542405D01*
X545000Y895250D01*
X577089Y907911D02*
X577089D01*
X547000Y895000D02*
X569297D01*
X577089Y907911D02*
X593000Y892000D01*
X417000Y866000D02*
X641000Y939000D01*
X606000Y873250D02*
Y877000D01*
X635000Y889228D02*
Y909000D01*
X623500Y895500D02*
Y908500D01*
Y876000D02*
Y878250D01*
X628845Y883595D01*
X629367D01*
X606500Y876000D02*
Y894000D01*
X629367Y883595D02*
X635000Y889228D01*
X640000Y914000D02*
X648000D01*
X635000Y909000D02*
X640000Y914000D01*
X713895Y853105D02*
X714000Y853000D01*
X693000Y841000D02*
X707000D01*
X687500Y846500D02*
X693000Y841000D01*
X707000D02*
X714000Y848000D01*
X700000Y849445D02*
X700200Y849645D01*
X714000Y848000D02*
Y853000D01*
X718000Y849000D01*
X674800Y851200D02*
X675000Y851000D01*
X687500Y846500D02*
Y860900D01*
X757405Y846405D02*
Y857155D01*
X762000Y849000D02*
Y859500D01*
X777500Y819678D02*
X780000Y817178D01*
X777500Y819678D02*
Y820000D01*
Y829000D01*
X769000Y837500D02*
X777500Y829000D01*
X769000Y837500D02*
Y842000D01*
X762000Y849000D02*
X769000Y842000D01*
X718000Y849000D02*
X736768D01*
X742000Y854232D01*
X700200Y849645D02*
Y860900D01*
X713895Y853105D02*
Y858105D01*
X674800Y851200D02*
Y860900D01*
X713500Y858500D02*
X713895Y858105D01*
X714000Y859000D02*
Y861000D01*
X675000Y916000D02*
X675795Y916795D01*
X712900Y914100D02*
X713000Y914200D01*
X391500Y790500D02*
Y840500D01*
X352000Y757000D02*
X378000D01*
X391500Y770500D01*
Y790000D01*
X408500D02*
Y841500D01*
X1010500Y842500D02*
X1032500D01*
X1018000Y827000D02*
X1026327Y835327D01*
X966000Y827000D02*
X1018000D01*
X1010000Y842000D02*
X1010500Y842500D01*
X1026327Y835327D02*
X1026772D01*
X1027000Y835555D01*
X1032500Y842500D02*
X1034000Y844000D01*
X1043000D01*
X1275405Y783000D02*
X1278000Y780405D01*
X1269000Y783000D02*
X1275405D01*
X1280000Y771000D02*
Y780000D01*
X1278000D02*
Y780405D01*
X1269000Y783000D02*
Y796000D01*
X1136405Y847345D02*
Y847595D01*
X1059750Y844250D02*
X1060000Y844000D01*
X1158577Y827000D02*
X1249250D01*
X1136405Y847345D02*
X1138750Y845000D01*
X1139000D01*
X1142000D02*
X1143250D01*
X1151577Y836673D01*
Y834000D02*
Y836673D01*
Y834000D02*
X1158577Y827000D01*
X1295000Y848000D02*
X1316000Y827000D01*
X1206000Y846500D02*
X1222500D01*
X1223000Y847000D01*
X1247000Y818000D02*
X1269000Y796000D01*
X1257000Y835000D02*
X1263000Y829000D01*
X1249250Y827000D02*
X1276250Y800000D01*
X1279000D01*
X1263000Y829000D02*
X1293000D01*
X972000Y850055D02*
X972150Y850205D01*
X1022500Y850000D02*
X1023100Y850600D01*
X1010400Y842900D02*
Y860900D01*
X997700Y849700D02*
Y860900D01*
X985000Y850000D02*
Y860900D01*
X972150Y850205D02*
Y860850D01*
X1023100Y850600D02*
Y860900D01*
X1023200Y861000D01*
X998850Y941150D02*
X1010400Y929600D01*
X972300Y914100D02*
Y927700D01*
X970000Y950000D02*
X978850Y941150D01*
X972500Y957500D02*
X982500Y947500D01*
X975300Y934700D02*
X991300D01*
X997700Y914100D02*
Y927700D01*
X985000Y915000D02*
Y926000D01*
X978850Y941150D02*
X998850D01*
X982500Y947500D02*
X1002500D01*
X991300Y934700D02*
X997700Y928300D01*
X1010400Y914100D02*
Y929600D01*
X1002500Y947500D02*
X1023100Y926900D01*
Y914100D02*
Y926900D01*
X1054796Y925488D02*
X1054936Y925348D01*
X1023100Y914000D02*
X1033000D01*
X1023200Y861000D02*
X1043000D01*
X1033000Y914000D02*
X1043000Y904000D01*
X1059000Y899000D02*
X1059750Y898250D01*
X1059000Y899000D02*
X1059772Y899772D01*
X1043000Y881000D02*
Y904000D01*
X1241750Y848000D02*
X1295000D01*
X1060000Y844000D02*
X1073110Y857110D01*
X1059750Y844250D02*
Y861250D01*
X1226250Y863500D02*
X1241750Y848000D01*
X1073110Y857110D02*
X1073877D01*
X1077945Y861178D01*
X1113000Y871000D02*
X1136405Y847595D01*
X1077945Y861178D02*
Y861945D01*
X1138750Y862000D02*
X1141000D01*
X1224000Y863500D02*
X1226250D01*
X1059500Y862000D02*
X1059750Y862250D01*
X1137228Y863272D02*
X1139000Y861500D01*
X1054936Y925348D02*
X1064618D01*
X1064966Y925000D01*
X1071000D01*
X1071000Y864055D02*
Y864377D01*
X1059750Y881250D02*
Y898250D01*
X1059750Y862250D02*
Y881000D01*
X1059772Y899772D02*
Y911772D01*
X1059750Y881250D02*
X1060000Y881000D01*
X1059772Y911772D02*
X1060000Y912000D01*
X1071000Y864377D02*
X1076000Y869377D01*
X712461Y577772D02*
X719772D01*
X720000Y584945D02*
Y585000D01*
X733945Y584945D02*
X734000Y585000D01*
X720000Y585000D02*
Y585540D01*
Y585000D02*
X720000Y585000D01*
X701000Y581986D02*
X707694D01*
X719772Y577772D02*
X720000Y578000D01*
X710373Y575684D02*
X712461Y577772D01*
X720772Y519688D02*
X721000Y519460D01*
X712516Y568848D02*
X713774Y570105D01*
X719772D02*
X720000Y570333D01*
X718486Y527000D02*
X721000D01*
X713501Y519688D02*
X720772D01*
X713774Y570105D02*
X719772D01*
X710368Y562348D02*
X710370Y562350D01*
X703150Y568848D02*
X712516D01*
X710370Y562350D02*
X719557D01*
X700253Y536250D02*
X720705D01*
X719557Y562350D02*
X720000Y562793D01*
X720705Y536250D02*
X721000Y535955D01*
X793000Y462000D02*
X838000Y417000D01*
X859000Y431000D02*
X862595Y434595D01*
X793000Y462000D02*
Y547000D01*
X838000Y417000D02*
X868000D01*
X792500Y547500D02*
X793000Y547000D01*
X717000Y439000D02*
X725000Y447000D01*
X904000Y431000D02*
X906000Y433000D01*
X907000Y432000D01*
X917000D01*
X991000Y600500D02*
Y601000D01*
X989500Y584000D02*
Y598500D01*
X991000Y600000D01*
X1030000Y599000D02*
Y602000D01*
X1026845Y586345D02*
Y595845D01*
X1030000Y599000D01*
X1024500Y584000D02*
X1026845Y586345D01*
X1053173Y561577D02*
X1054423D01*
X1060000Y556000D01*
X1044000Y569000D02*
X1045750D01*
X1053173Y561577D01*
X1060000Y537500D02*
Y556000D01*
X1047000Y526500D02*
X1049000D01*
X1060000Y537500D01*
X1027000Y524000D02*
Y536000D01*
X1022000Y539000D02*
Y557000D01*
Y539000D02*
X1025000Y536000D01*
X1041905Y548595D02*
Y549773D01*
Y548595D02*
X1045000Y545500D01*
X1048000D01*
X1012000Y538600D02*
Y566000D01*
X1007500Y570500D02*
X1012000Y566000D01*
X1007500Y570500D02*
Y582500D01*
X998125Y524725D02*
X1012000Y538600D01*
X981000Y514000D02*
X991725Y524725D01*
X971000Y514000D02*
X981000D01*
X991725Y524725D02*
X998125D01*
X975875Y502475D02*
X983475D01*
X993495Y512495D02*
X1021155D01*
X983475Y502475D02*
X993495Y512495D01*
X974600Y501200D02*
X975875Y502475D01*
X1023000Y509000D02*
Y510650D01*
X1021155Y512495D02*
X1023000Y510650D01*
X1027000Y447000D02*
Y447200D01*
X1025900Y448100D02*
X1027000Y447000D01*
X1025900Y448100D02*
Y489100D01*
X1025000Y490000D02*
X1025900Y489100D01*
X950000Y478000D02*
X1014000D01*
X1025000Y488750D02*
Y489000D01*
X1021405Y485155D02*
X1025000Y488750D01*
X1021155Y485155D02*
X1021405D01*
X1014000Y478000D02*
X1021155Y485155D01*
X1050000Y513000D02*
Y526000D01*
X699000Y462000D02*
X717000D01*
X641000D02*
X699000D01*
X640000D02*
X641000D01*
X638500Y466500D02*
X640000Y465000D01*
X639000Y463000D02*
Y465000D01*
X609000Y466500D02*
X638500D01*
X969945Y438945D02*
X978000Y447000D01*
X925055Y438945D02*
X969945D01*
X916000Y464500D02*
X936500D01*
X950000Y478000D01*
X940294Y478116D02*
X940411Y478232D01*
X929500Y478000D02*
X929616Y478116D01*
X940294D01*
X908000Y456000D02*
X925055Y438945D01*
X908000Y456000D02*
Y464500D01*
X955000Y500000D02*
Y517000D01*
X622278Y516750D02*
X629747D01*
X622042Y516514D02*
X622278Y516750D01*
X622042Y515390D02*
Y516514D01*
X619652Y513000D02*
X622042Y515390D01*
X629764Y516750D02*
X630000Y516514D01*
X622278Y542750D02*
X629747D01*
X619652Y540000D02*
X621884Y542232D01*
Y542356D02*
X622278Y542750D01*
X621884Y542232D02*
Y542356D01*
X858000Y431000D02*
Y437000D01*
X929500Y510000D02*
X942000D01*
X929500Y526000D02*
X959000D01*
X971000Y514000D01*
X929500Y494000D02*
X942000D01*
X904000Y431000D02*
Y432250D01*
X929500Y486000D02*
X942000D01*
X962535Y575535D02*
X966702Y579702D01*
X962535Y575263D02*
Y575535D01*
X961297Y573703D02*
Y574025D01*
X962535Y575263D01*
X946000Y585000D02*
X948000Y587000D01*
X863586Y563000D02*
X868000Y558586D01*
Y547500D02*
Y558586D01*
Y547000D02*
Y547500D01*
X811000Y563000D02*
X863586D01*
X880000Y597500D02*
X880000Y597500D01*
Y620000D01*
X860000Y621000D02*
Y622500D01*
Y597500D02*
Y621000D01*
X870000Y597500D02*
Y617500D01*
X776500Y461000D02*
X777000Y461500D01*
X778000Y455950D02*
X781695Y452255D01*
X783745D01*
X811772Y430228D02*
X812000Y430000D01*
X778000Y455950D02*
Y458000D01*
X858000Y431000D02*
X859000D01*
X812000Y430000D02*
X812228Y429772D01*
X870232Y427232D02*
X874000Y431000D01*
X873500Y430500D02*
X876595Y427405D01*
X873500Y430500D02*
X873500D01*
X868000Y417000D02*
X870232Y419232D01*
Y427232D01*
X868000Y452264D02*
Y464500D01*
X900405Y426155D02*
X904250Y430000D01*
X898000Y418000D02*
X900405Y420405D01*
Y426155D01*
X878827Y418000D02*
X898000D01*
X876595Y420232D02*
X878827Y418000D01*
X876595Y420232D02*
Y427405D01*
X883000Y442250D02*
Y465000D01*
X873000Y432250D02*
X883000Y442250D01*
X903535Y432465D02*
Y443465D01*
X900000Y447000D02*
X903535Y443465D01*
X900000Y447000D02*
Y464500D01*
X778133Y561867D02*
X792500Y547500D01*
X780000Y600000D02*
Y619000D01*
X780000Y600000D02*
X780000Y600000D01*
X780000Y619000D02*
X780000Y619000D01*
X830000Y597500D02*
X830000Y597500D01*
X830000Y617500D02*
X830000Y617500D01*
Y597500D02*
Y617500D01*
X820000Y597500D02*
Y621000D01*
X810000Y597000D02*
Y618000D01*
X850000Y597500D02*
Y621000D01*
X840000Y597500D02*
Y621000D01*
X1024500Y581750D02*
Y584000D01*
X966702Y579702D02*
X970155D01*
X972000Y581547D02*
Y583000D01*
X970155Y579702D02*
X972000Y581547D01*
Y552000D02*
X974600D01*
X810000Y618000D02*
X811000Y619000D01*
X880000Y620000D02*
X880000Y620000D01*
X700351Y523152D02*
X710036D01*
X713501Y519688D01*
X700253Y523250D02*
X700351Y523152D01*
X764000Y562500D02*
X764633Y561867D01*
X778133D01*
X825000Y451000D02*
Y495822D01*
X831178Y502000D01*
X833000Y494000D02*
X846500D01*
X831178Y502000D02*
X846500D01*
X794000Y570000D02*
X816500Y547500D01*
X860000D01*
X776000Y577111D02*
X817000Y536111D01*
Y512515D02*
Y536111D01*
X752845Y585000D02*
X813619D01*
X750000Y581000D02*
Y582155D01*
X752845Y585000D01*
X814000D02*
X901153D01*
X720000Y584945D02*
X733945D01*
X710653D02*
X720000D01*
X908323Y557073D02*
X915125Y563875D01*
X990705Y563295D02*
X1000000Y554000D01*
X963295Y563295D02*
X990705D01*
X954845Y554845D02*
X963295Y563295D01*
X924155Y554845D02*
X954845D01*
X916000Y563000D02*
X924155Y554845D01*
X975000Y526000D02*
Y526200D01*
X974600Y526600D02*
X975000Y526200D01*
X953200Y548000D02*
X974600Y526600D01*
X916500Y548000D02*
X953200D01*
X901153Y585000D02*
X946000D01*
X904405Y564632D02*
Y581749D01*
X901153Y585000D02*
X904405Y581749D01*
X707694Y581986D02*
X710653Y584945D01*
X700764Y581750D02*
X701000Y581986D01*
X700253Y581750D02*
X700764D01*
X1027000Y524000D02*
X1041500Y509500D01*
X942000Y518000D02*
X942000Y518000D01*
X929500Y518000D02*
X942000D01*
X629747Y549250D02*
Y555750D01*
Y577747D02*
Y581750D01*
X622002Y549250D02*
X629747D01*
X619252Y552000D02*
X622002Y549250D01*
X759325Y411675D02*
X778000D01*
Y411000D02*
X780150D01*
X783150Y414000D01*
X797500D01*
X700253Y549250D02*
X707860D01*
X700253Y555750D02*
X700351Y555848D01*
X735000Y557000D02*
X754950D01*
X707860Y549250D02*
X713805Y555195D01*
X700351Y555848D02*
X713000D01*
Y556000D02*
X713152Y555848D01*
X733152D01*
X758000Y413000D02*
X759325Y411675D01*
X745500Y493000D02*
X749500Y497000D01*
X748500D02*
X749500D01*
X700007Y510014D02*
X700243Y510250D01*
X700253D01*
X630000Y511000D02*
Y516514D01*
X701124Y516750D02*
X703000Y514874D01*
X700253Y516750D02*
X701124D01*
X833000Y486000D02*
X846500D01*
X833000Y478000D02*
X846500D01*
X929500Y534000D02*
X942000D01*
X929500Y534000D02*
X929500Y534000D01*
X916000Y547500D02*
X916500Y548000D01*
X860000Y452000D02*
Y464500D01*
X860000Y464500D02*
X860000Y464500D01*
X709000Y575684D02*
X710373D01*
X703000Y568698D02*
X703150Y568848D01*
X700351Y562348D02*
X710368D01*
X700253Y562250D02*
X700351Y562348D01*
X834322Y535000D02*
X835322Y534000D01*
X834000Y535000D02*
X834322D01*
X835322Y534000D02*
X846000D01*
X842043Y526000D02*
X845000D01*
X841043Y527000D02*
X842043Y526000D01*
X834000Y527000D02*
X841043D01*
X715736Y529750D02*
X718486Y527000D01*
X700253Y529750D02*
X715736D01*
X758950Y561000D02*
X762000D01*
X754950Y557000D02*
X758950Y561000D01*
X908000Y547500D02*
X908323Y547823D01*
Y557073D01*
X900000Y547500D02*
Y560228D01*
X904405Y564632D01*
X892323Y571323D02*
X895000Y574000D01*
X892323Y547823D02*
Y571323D01*
X892000Y547500D02*
X892323Y547823D01*
X929500Y502000D02*
X942000D01*
D60*
X449664Y607132D02*
X456051Y600746D01*
Y598949D02*
X477253Y577747D01*
X629750D01*
X447868Y607132D02*
X449664D01*
X456051Y598949D02*
Y600746D01*
X419000Y605309D02*
X421008D01*
X422845Y600154D02*
Y603471D01*
X471000Y552000D02*
X619252D01*
X421008Y605309D02*
X422845Y603471D01*
Y600154D02*
X471000Y552000D01*
X605250Y517000D02*
X611000Y511250D01*
X604000Y517000D02*
X605250D01*
X611000Y511250D02*
X612750Y513000D01*
X619652D01*
X607000Y540000D02*
X619652D01*
X606750Y540750D02*
X607000Y541000D01*
X600250Y540750D02*
X606750D01*
X716000Y426000D02*
X719000Y423000D01*
X723000D01*
X734620D01*
X700000Y483000D02*
X710000Y493000D01*
X727000D02*
X728000D01*
X710000D02*
X726750D01*
X696000Y485000D02*
X697162D01*
X700007Y487845D01*
X728000Y493000D02*
X745500D01*
X700007Y487845D02*
Y510014D01*
X759000Y429055D02*
X763095Y433150D01*
X759000Y429000D02*
Y429055D01*
X763095Y433150D02*
X779000D01*
X703000Y511000D02*
Y514874D01*
X750000Y455950D02*
Y463000D01*
X749000Y461500D02*
Y494000D01*
X750000Y455950D02*
X758000Y447950D01*
Y431500D02*
Y447950D01*
D61*
X790000Y791500D02*
Y827500D01*
D62*
X792000Y547000D02*
X792500Y547500D01*
X793000Y548000D01*
X790000Y596000D02*
Y621000D01*
D63*
X688000Y626000D02*
D03*
X662600D02*
D03*
D64*
X713400D02*
D03*
D65*
X567500Y615000D02*
D03*
Y842500D02*
D03*
X1101000Y844000D02*
D03*
X1101000Y621000D02*
D03*
Y441000D02*
D03*
X1305000Y615000D02*
D03*
Y435000D02*
D03*
X567500Y435000D02*
D03*
X365000Y435000D02*
D03*
Y615000D02*
D03*
D66*
X450000Y619000D02*
D03*
X419520D02*
D03*
X1246480Y616000D02*
D03*
X1216000D02*
D03*
D67*
X855400Y919650D02*
D03*
D68*
X830000Y894250D02*
D03*
X804600Y919650D02*
D03*
D69*
X1000000Y501200D02*
D03*
X974600D02*
D03*
X1000000Y526600D02*
D03*
X974600D02*
D03*
X1000000Y552000D02*
D03*
D70*
X974600D02*
D03*
D71*
X1026800Y447000D02*
D03*
X978000D02*
D03*
D72*
X607000Y825000D02*
D03*
X611000Y511250D02*
D03*
X604000Y517000D02*
D03*
X607000Y541000D02*
D03*
X716000Y426000D02*
D03*
X723000Y423000D02*
D03*
X600250Y540750D02*
D03*
X718000Y481000D02*
D03*
X1048000Y597000D02*
D03*
X1021000Y571000D02*
D03*
X675000Y851000D02*
D03*
X559000Y880000D02*
D03*
X577089Y907911D02*
D03*
X528000Y885055D02*
D03*
X593000Y892000D02*
D03*
X650000Y842500D02*
D03*
X659775Y925055D02*
D03*
X662100Y835400D02*
D03*
X668000Y925705D02*
D03*
X700000Y849445D02*
D03*
X777500Y820000D02*
D03*
X790000Y827500D02*
D03*
X844928Y834928D02*
D03*
X847500Y842500D02*
D03*
X750000Y849445D02*
D03*
X892500Y811055D02*
D03*
X890000Y958000D02*
D03*
X887500Y827500D02*
D03*
X855000Y864000D02*
D03*
X960000Y926000D02*
D03*
X861945Y869055D02*
D03*
X862500Y880000D02*
D03*
X873000Y918000D02*
D03*
X893000Y879000D02*
D03*
X910000Y850000D02*
D03*
X936000Y905000D02*
D03*
X946000Y828000D02*
D03*
X947000Y850000D02*
D03*
X985000D02*
D03*
X1316000Y827000D02*
D03*
X1293000Y829000D02*
D03*
X1257000Y835000D02*
D03*
X1027000Y835555D02*
D03*
X1206000Y837000D02*
D03*
X1010000Y842500D02*
D03*
X997700Y849700D02*
D03*
X1022500Y850000D02*
D03*
X972000Y850055D02*
D03*
X1071000Y864055D02*
D03*
X1130000Y867000D02*
D03*
X1076000Y886000D02*
D03*
X1060000Y912000D02*
D03*
X1054796Y925488D02*
D03*
X985000Y926000D02*
D03*
X997700Y927700D02*
D03*
X832500Y850000D02*
D03*
X779000D02*
D03*
X838650Y856350D02*
D03*
X734000Y858000D02*
D03*
X842500Y880000D02*
D03*
X750000Y886000D02*
D03*
X803000Y889000D02*
D03*
X762000Y922000D02*
D03*
X678295Y925705D02*
D03*
X713000Y926000D02*
D03*
X735322Y928678D02*
D03*
X696000Y932000D02*
D03*
X1280000Y771000D02*
D03*
X352000Y757000D02*
D03*
X720000Y585540D02*
D03*
X720000Y578000D02*
D03*
X721000Y535955D02*
D03*
Y519460D02*
D03*
X720000Y570333D02*
D03*
Y562793D02*
D03*
X721000Y527000D02*
D03*
X812000Y459000D02*
D03*
X793000Y462000D02*
D03*
X725000Y447000D02*
D03*
X812000Y430000D02*
D03*
X917000Y432000D02*
D03*
X1053000Y497000D02*
D03*
X1022000Y557000D02*
D03*
X1050000Y513000D02*
D03*
X583000Y539000D02*
D03*
X940411Y478232D02*
D03*
X955000Y500000D02*
D03*
X601000Y568897D02*
D03*
X942000Y510000D02*
D03*
X955000Y517000D02*
D03*
X942000Y494000D02*
D03*
X942000Y486000D02*
D03*
X961297Y573703D02*
D03*
X880000Y597500D02*
D03*
X870000D02*
D03*
X860000D02*
D03*
X868000Y452264D02*
D03*
X793000Y548000D02*
D03*
X790000Y596000D02*
D03*
X780000Y600000D02*
D03*
X830000Y597500D02*
D03*
X810000Y597000D02*
D03*
X850000Y597500D02*
D03*
X820000D02*
D03*
X840000D02*
D03*
X833000Y494000D02*
D03*
X811000Y563000D02*
D03*
X794000Y570000D02*
D03*
X776000Y577111D02*
D03*
X717000Y462000D02*
D03*
X942000Y518000D02*
D03*
X825000Y451000D02*
D03*
X833000Y486000D02*
D03*
Y478000D02*
D03*
X942000Y534000D02*
D03*
X860000Y452000D02*
D03*
X817000Y512515D02*
D03*
X834000Y535000D02*
D03*
Y527000D02*
D03*
X942000Y502000D02*
D03*
M02*
