G04*
G04 #@! TF.GenerationSoftware,Altium Limited,Altium Designer,23.10.1 (27)*
G04*
G04 Layer_Color=32896*
%FSLAX44Y44*%
%MOMM*%
G71*
G04*
G04 #@! TF.SameCoordinates,E985FA8A-299A-4084-AA3F-4317102C53E2*
G04*
G04*
G04 #@! TF.FilePolarity,Positive*
G04*
G01*
G75*
%ADD11C,0.2000*%
%ADD12C,0.1270*%
%ADD15C,0.2540*%
D11*
X520000Y882000D02*
G03*
X520000Y882000I-1000J0D01*
G01*
X381000Y812250D02*
G03*
X381000Y812250I-1000J0D01*
G01*
X661000Y922250D02*
G03*
X661000Y922250I-1000J0D01*
G01*
X790000Y942000D02*
G03*
X790000Y942000I-1000J0D01*
G01*
X920000D02*
G03*
X920000Y942000I-1000J0D01*
G01*
X1330000Y812000D02*
G03*
X1330000Y812000I-1000J0D01*
G01*
X1190000Y882000D02*
G03*
X1190000Y882000I-1000J0D01*
G01*
X1050000Y922000D02*
G03*
X1050000Y922000I-1000J0D01*
G01*
D12*
X518000Y845500D02*
Y874500D01*
X482000Y845500D02*
Y874500D01*
X516000D02*
X518000D01*
X516000Y845500D02*
X518000D01*
X482000D02*
X484000D01*
X482000Y874500D02*
X484000D01*
X379000Y775750D02*
Y804750D01*
X343000Y775750D02*
Y804750D01*
X377000D02*
X379000D01*
X377000Y775750D02*
X379000D01*
X343000D02*
X345000D01*
X343000Y804750D02*
X345000D01*
X659000Y885750D02*
Y914750D01*
X623000Y885750D02*
Y914750D01*
X657000D02*
X659000D01*
X657000Y885750D02*
X659000D01*
X623000D02*
X625000D01*
X623000Y914750D02*
X625000D01*
X788000Y905500D02*
Y934500D01*
X752000Y905500D02*
Y934500D01*
X786000D02*
X788000D01*
X786000Y905500D02*
X788000D01*
X752000D02*
X754000D01*
X752000Y934500D02*
X754000D01*
X918000Y905500D02*
Y934500D01*
X882000Y905500D02*
Y934500D01*
X916000D02*
X918000D01*
X916000Y905500D02*
X918000D01*
X882000D02*
X884000D01*
X882000Y934500D02*
X884000D01*
X1328000Y775500D02*
Y804500D01*
X1292000Y775500D02*
Y804500D01*
X1326000D02*
X1328000D01*
X1326000Y775500D02*
X1328000D01*
X1292000D02*
X1294000D01*
X1292000Y804500D02*
X1294000D01*
X1188000Y845500D02*
Y874500D01*
X1152000Y845500D02*
Y874500D01*
X1186000D02*
X1188000D01*
X1186000Y845500D02*
X1188000D01*
X1152000D02*
X1154000D01*
X1152000Y874500D02*
X1154000D01*
X1048000Y885500D02*
Y914500D01*
X1012000Y885500D02*
Y914500D01*
X1046000D02*
X1048000D01*
X1046000Y885500D02*
X1048000D01*
X1012000D02*
X1014000D01*
X1012000Y914500D02*
X1014000D01*
D15*
X410696Y805078D02*
Y796614D01*
X409003Y794922D01*
X405617D01*
X403925Y796614D01*
Y805078D01*
X400539Y794922D02*
X397154D01*
X398846D01*
Y805078D01*
X400539Y803386D01*
X392075D02*
X390382Y805078D01*
X386997D01*
X385304Y803386D01*
Y801693D01*
X386997Y800000D01*
X385304Y798307D01*
Y796614D01*
X386997Y794922D01*
X390382D01*
X392075Y796614D01*
Y798307D01*
X390382Y800000D01*
X392075Y801693D01*
Y803386D01*
X390382Y800000D02*
X386997D01*
X549696Y871078D02*
Y862614D01*
X548003Y860922D01*
X544618D01*
X542925Y862614D01*
Y871078D01*
X539539Y860922D02*
X536154D01*
X537846D01*
Y871078D01*
X539539Y869386D01*
X524304Y871078D02*
X527690Y869386D01*
X531075Y866000D01*
Y862614D01*
X529382Y860922D01*
X525997D01*
X524304Y862614D01*
Y864307D01*
X525997Y866000D01*
X531075D01*
X689696Y893078D02*
Y884614D01*
X688003Y882922D01*
X684617D01*
X682925Y884614D01*
Y893078D01*
X679539Y882922D02*
X676154D01*
X677846D01*
Y893078D01*
X679539Y891386D01*
X665997Y882922D02*
Y893078D01*
X671075Y888000D01*
X664304D01*
X814003Y909078D02*
Y900614D01*
X812310Y898922D01*
X808925D01*
X807232Y900614D01*
Y909078D01*
X803846Y898922D02*
X800461D01*
X802154D01*
Y909078D01*
X803846Y907386D01*
X795382Y898922D02*
X791997D01*
X793690D01*
Y909078D01*
X795382Y907386D01*
X876464Y909078D02*
Y900614D01*
X874771Y898922D01*
X871386D01*
X869693Y900614D01*
Y909078D01*
X866307Y900614D02*
X864614Y898922D01*
X861229D01*
X859536Y900614D01*
Y907386D01*
X861229Y909078D01*
X864614D01*
X866307Y907386D01*
Y905693D01*
X864614Y904000D01*
X859536D01*
X1006464Y905078D02*
Y896614D01*
X1004771Y894922D01*
X1001386D01*
X999693Y896614D01*
Y905078D01*
X996307D02*
X989536D01*
Y903386D01*
X996307Y896614D01*
Y894922D01*
X1146464Y864078D02*
Y855614D01*
X1144771Y853922D01*
X1141386D01*
X1139693Y855614D01*
Y864078D01*
X1129536D02*
X1136307D01*
Y859000D01*
X1132922Y860693D01*
X1131229D01*
X1129536Y859000D01*
Y855614D01*
X1131229Y853922D01*
X1134614D01*
X1136307Y855614D01*
X1286464Y798078D02*
Y789614D01*
X1284771Y787922D01*
X1281386D01*
X1279693Y789614D01*
Y798078D01*
X1276307Y796386D02*
X1274614Y798078D01*
X1271229D01*
X1269536Y796386D01*
Y794693D01*
X1271229Y793000D01*
X1272922D01*
X1271229D01*
X1269536Y791307D01*
Y789614D01*
X1271229Y787922D01*
X1274614D01*
X1276307Y789614D01*
M02*
