M48
;Layer_Color=9474304
;FILE_FORMAT=4:2
METRIC,LZ
;TYPE=PLATED
T01F00S00C0.30
T02F00S00C0.66
T03F00S00C0.75
T04F00S00C1.02
T05F00S00C1.09
T07F00S00C3.00
%
T01
X0128Y00771
X01048Y00597
X01021Y00571
X01022Y00557
X0105Y00513
X01053Y00497
X00955Y005
X00942Y00502
Y00494
X00942Y00486
X009404Y004782
X00942Y0051
X00942Y00518
X00955Y00517
X00942Y00534
X009613Y005737
X0088Y005975
X0087
X0086
X0085
X0084
X0083
X0082
X0081Y00597
X00811Y00563
X00794Y0057
X00834Y00535
Y00527
X00817Y005125
X00833Y00494
Y00486
Y00478
X00825Y00451
X00812Y00459
Y0043
X0086Y00452
X00868Y004523
X00917Y00432
X00793Y00462
X00717
X00718Y00481
X00725Y00447
X00723Y00423
X00716Y00426
X00721Y005195
Y00527
Y00536
X0072Y005628
Y005703
Y00578
X0072Y005855
X00776Y005771
X0078Y006
X0079Y00596
X00793Y00548
X00607Y00541
X006003Y005408
X00583Y00539
X00604Y00517
X00611Y005112
X00601Y005689
X00352Y00757
X00528Y008851
X00559Y0088
X005771Y009079
X00593Y00892
X00607Y00825
X0065Y008425
X006621Y008354
X00675Y00851
X007Y008494
X00734Y00858
X0075Y008494
X00779Y0085
X007775Y0082
X0079Y008275
X0075Y00886
X00762Y00922
X007353Y009287
X00713Y00926
X00696Y00932
X006783Y009257
X00668
X006598Y009251
X00803Y00889
X008425Y0088
X008625
X008619Y008691
X00855Y00864
X008386Y008564
X008325Y0085
X008475Y008425
X008449Y008349
X008875Y008275
X008925Y008111
X0091Y0085
X00947
X00946Y00828
X00972Y008501
X00985Y0085
X009977Y008497
X0101Y008425
X010225Y0085
X01027Y008356
X01071Y008641
X01076Y00886
X0106Y00912
X010548Y009255
X009977Y009277
X00985Y00926
X0096
X00936Y00905
X00893Y00879
X00873Y00918
X0089Y00958
X0113Y00867
X01206Y00837
X01257Y00835
X01293Y00829
X01316Y00827
T02
X00978Y00447
X010268
T03
X0083Y008943
X008554Y009196
X008046
T04
X009746Y005012
X01
Y005266
X009746
Y00552
X01
X005144Y00618
X00489
T05
X006626Y00626
X00688
X007134
T07
X01305Y00435
Y00615
X01101Y00621
Y00441
X005675Y00435
Y00615
X00365Y00615
Y00435
X005675Y008425
X01101Y00844
M30
